<svg width="672" height="196" xmlns="http://www.w3.org/2000/svg" xmlns:xlink="http://www.w3.org/1999/xlink" xml:space="preserve" overflow="hidden"><g transform="translate(-80 -262)"><path d="M11.76 0C11.76 6.49487 6.49487 11.76 4.673e-07 11.76-6.49487 11.76-11.76 6.49487-11.76 4.673e-07-11.76-6.49487-6.49487-11.76 5.06242e-07-11.76 6.49487-11.76 11.76-6.49487 11.76 0Z" transform="matrix(1.00348 0 0 1 112.78 311)"/><path d="M11.76 0C11.76 6.49487 6.49487 11.76 4.673e-07 11.76-6.49487 11.76-11.76 6.49487-11.76 4.673e-07-11.76-6.49487-6.49487-11.76 5.06242e-07-11.76 6.49487-11.76 11.76-6.49487 11.76 0Z" transform="matrix(1.00348 0 0 1 112.78 327.333)"/><path d="M11.76 0C11.76 6.49487 6.49487 11.76 4.673e-07 11.76-6.49487 11.76-11.76 6.49487-11.76 4.673e-07-11.76-6.49487-6.49487-11.76 5.06242e-07-11.76 6.49487-11.76 11.76-6.49487 11.76 0Z" transform="matrix(1.00348 0 0 1 112.78 343.667)"/><path d="M11.76 0C11.76 6.49487 6.49487 11.76 4.673e-07 11.76-6.49487 11.76-11.76 6.49487-11.76 4.673e-07-11.76-6.49487-6.49487-11.76 5.06242e-07-11.76 6.49487-11.76 11.76-6.49487 11.76 0Z" transform="matrix(1.00348 0 0 1 112.78 360)"/><path d="M11.76 0C11.76 6.49487 6.49487 11.76 4.673e-07 11.76-6.49487 11.76-11.76 6.49487-11.76 4.673e-07-11.76-6.49487-6.49487-11.76 5.06242e-07-11.76 6.49487-11.76 11.76-6.49487 11.76 0Z" transform="matrix(1.00348 0 0 1 112.78 376.333)"/><path d="M11.76 0C11.76 6.49487 6.49487 11.76 4.673e-07 11.76-6.49487 11.76-11.76 6.49487-11.76 4.673e-07-11.76-6.49487-6.49487-11.76 5.06242e-07-11.76 6.49487-11.76 11.76-6.49487 11.76 0Z" transform="matrix(1.00348 0 0 1 112.78 392.667)"/><path d="M11.76 0C11.76 6.49487 6.49487 11.76 4.673e-07 11.76-6.49487 11.76-11.76 6.49487-11.76 4.673e-07-11.76-6.49487-6.49487-11.76 5.06242e-07-11.76 6.49487-11.76 11.76-6.49487 11.76 0Z" transform="matrix(1.00348 0 0 1 112.78 409)"/><path d="M11.76 0C11.76 6.49487 6.49487 11.76 4.673e-07 11.76-6.49487 11.76-11.76 6.49487-11.76 4.673e-07-11.76-6.49487-6.49487-11.76 5.06242e-07-11.76 6.49487-11.76 11.76-6.49487 11.76 0Z" transform="matrix(1.00348 0 0 1 129.171 311)"/><path d="M11.76 0C11.76 6.49487 6.49487 11.76 4.673e-07 11.76-6.49487 11.76-11.76 6.49487-11.76 4.673e-07-11.76-6.49487-6.49487-11.76 5.06242e-07-11.76 6.49487-11.76 11.76-6.49487 11.76 0Z" transform="matrix(1.00348 0 0 1 129.171 327.333)"/><path d="M11.76 0C11.76 6.49487 6.49487 11.76 4.673e-07 11.76-6.49487 11.76-11.76 6.49487-11.76 4.673e-07-11.76-6.49487-6.49487-11.76 5.06242e-07-11.76 6.49487-11.76 11.76-6.49487 11.76 0Z" transform="matrix(1.00348 0 0 1 129.171 343.667)"/><path d="M11.76 0C11.76 6.49487 6.49487 11.76 4.673e-07 11.76-6.49487 11.76-11.76 6.49487-11.76 4.673e-07-11.76-6.49487-6.49487-11.76 5.06242e-07-11.76 6.49487-11.76 11.76-6.49487 11.76 0Z" transform="matrix(1.00348 0 0 1 129.171 360)"/><path d="M11.76 0C11.76 6.49487 6.49487 11.76 4.673e-07 11.76-6.49487 11.76-11.76 6.49487-11.76 4.673e-07-11.76-6.49487-6.49487-11.76 5.06242e-07-11.76 6.49487-11.76 11.76-6.49487 11.76 0Z" transform="matrix(1.00348 0 0 1 129.171 376.333)"/><path d="M11.76 0C11.76 6.49487 6.49487 11.76 4.673e-07 11.76-6.49487 11.76-11.76 6.49487-11.76 4.673e-07-11.76-6.49487-6.49487-11.76 5.06242e-07-11.76 6.49487-11.76 11.76-6.49487 11.76 0Z" transform="matrix(1.00348 0 0 1 129.171 392.667)"/><path d="M11.76 0C11.76 6.49487 6.49487 11.76 4.673e-07 11.76-6.49487 11.76-11.76 6.49487-11.76 4.673e-07-11.76-6.49487-6.49487-11.76 5.06242e-07-11.76 6.49487-11.76 11.76-6.49487 11.76 0Z" transform="matrix(1.00348 0 0 1 129.171 409)"/><path d="M11.76 0C11.76 6.49487 6.49487 11.76 4.673e-07 11.76-6.49487 11.76-11.76 6.49487-11.76 4.673e-07-11.76-6.49487-6.49487-11.76 5.06242e-07-11.76 6.49487-11.76 11.76-6.49487 11.76 0Z" transform="matrix(1.00348 0 0 1 129.171 425.333)"/><path d="M11.76 0C11.76 6.49487 6.49487 11.76 4.673e-07 11.76-6.49487 11.76-11.76 6.49487-11.76 4.673e-07-11.76-6.49487-6.49487-11.76 5.06242e-07-11.76 6.49487-11.76 11.76-6.49487 11.76 0Z" transform="matrix(1.00348 0 0 1 145.561 311)"/><path d="M11.76 0C11.76 6.49487 6.49487 11.76 4.673e-07 11.76-6.49487 11.76-11.76 6.49487-11.76 4.673e-07-11.76-6.49487-6.49487-11.76 5.06242e-07-11.76 6.49487-11.76 11.76-6.49487 11.76 0Z" transform="matrix(1.00348 0 0 1 145.561 327.333)"/><path d="M11.76 0C11.76 6.49487 6.49487 11.76 4.673e-07 11.76-6.49487 11.76-11.76 6.49487-11.76 4.673e-07-11.76-6.49487-6.49487-11.76 5.06242e-07-11.76 6.49487-11.76 11.76-6.49487 11.76 0Z" transform="matrix(1.00348 0 0 1 145.561 343.667)"/><path d="M11.76 0C11.76 6.49487 6.49487 11.76 4.673e-07 11.76-6.49487 11.76-11.76 6.49487-11.76 4.673e-07-11.76-6.49487-6.49487-11.76 5.06242e-07-11.76 6.49487-11.76 11.76-6.49487 11.76 0Z" transform="matrix(1.00348 0 0 1 145.561 360)"/><path d="M11.76 0C11.76 6.49487 6.49487 11.76 4.673e-07 11.76-6.49487 11.76-11.76 6.49487-11.76 4.673e-07-11.76-6.49487-6.49487-11.76 5.06242e-07-11.76 6.49487-11.76 11.76-6.49487 11.76 0Z" transform="matrix(1.00348 0 0 1 145.561 376.333)"/><path d="M11.76 0C11.76 6.49487 6.49487 11.76 4.673e-07 11.76-6.49487 11.76-11.76 6.49487-11.76 4.673e-07-11.76-6.49487-6.49487-11.76 5.06242e-07-11.76 6.49487-11.76 11.76-6.49487 11.76 0Z" transform="matrix(1.00348 0 0 1 145.561 392.667)"/><path d="M11.76 0C11.76 6.49487 6.49487 11.76 4.673e-07 11.76-6.49487 11.76-11.76 6.49487-11.76 4.673e-07-11.76-6.49487-6.49487-11.76 5.06242e-07-11.76 6.49487-11.76 11.76-6.49487 11.76 0Z" transform="matrix(1.00348 0 0 1 145.561 409)"/><path d="M11.76 0C11.76 6.49487 6.49487 11.76 4.673e-07 11.76-6.49487 11.76-11.76 6.49487-11.76 4.673e-07-11.76-6.49487-6.49487-11.76 5.06242e-07-11.76 6.49487-11.76 11.76-6.49487 11.76 0Z" transform="matrix(1.00348 0 0 1 145.561 425.333)"/><path d="M11.76 0C11.76 6.49487 6.49487 11.76 4.673e-07 11.76-6.49487 11.76-11.76 6.49487-11.76 4.673e-07-11.76-6.49487-6.49487-11.76 5.06242e-07-11.76 6.49487-11.76 11.76-6.49487 11.76 0Z" transform="matrix(1.00348 0 0 1 161.951 311)"/><path d="M11.76 0C11.76 6.49487 6.49487 11.76 4.673e-07 11.76-6.49487 11.76-11.76 6.49487-11.76 4.673e-07-11.76-6.49487-6.49487-11.76 5.06242e-07-11.76 6.49487-11.76 11.76-6.49487 11.76 0Z" transform="matrix(1.00348 0 0 1 161.951 327.333)"/><path d="M11.76 0C11.76 6.49487 6.49487 11.76 4.673e-07 11.76-6.49487 11.76-11.76 6.49487-11.76 4.673e-07-11.76-6.49487-6.49487-11.76 5.06242e-07-11.76 6.49487-11.76 11.76-6.49487 11.76 0Z" transform="matrix(1.00348 0 0 1 161.951 343.667)"/><path d="M11.76 0C11.76 6.49487 6.49487 11.76 4.673e-07 11.76-6.49487 11.76-11.76 6.49487-11.76 4.673e-07-11.76-6.49487-6.49487-11.76 5.06242e-07-11.76 6.49487-11.76 11.76-6.49487 11.76 0Z" transform="matrix(1.00348 0 0 1 161.951 360)"/><path d="M11.76 0C11.76 6.49487 6.49487 11.76 4.673e-07 11.76-6.49487 11.76-11.76 6.49487-11.76 4.673e-07-11.76-6.49487-6.49487-11.76 5.06242e-07-11.76 6.49487-11.76 11.76-6.49487 11.76 0Z" transform="matrix(1.00348 0 0 1 161.951 376.333)"/><path d="M11.76 0C11.76 6.49487 6.49487 11.76 4.673e-07 11.76-6.49487 11.76-11.76 6.49487-11.76 4.673e-07-11.76-6.49487-6.49487-11.76 5.06242e-07-11.76 6.49487-11.76 11.76-6.49487 11.76 0Z" transform="matrix(1.00348 0 0 1 161.951 392.667)"/><path d="M11.76 0C11.76 6.49487 6.49487 11.76 4.673e-07 11.76-6.49487 11.76-11.76 6.49487-11.76 4.673e-07-11.76-6.49487-6.49487-11.76 5.06242e-07-11.76 6.49487-11.76 11.76-6.49487 11.76 0Z" transform="matrix(1.00348 0 0 1 161.951 409)"/><path d="M11.76 0C11.76 6.49487 6.49487 11.76 4.673e-07 11.76-6.49487 11.76-11.76 6.49487-11.76 4.673e-07-11.76-6.49487-6.49487-11.76 5.06242e-07-11.76 6.49487-11.76 11.76-6.49487 11.76 0Z" transform="matrix(1.00348 0 0 1 161.951 425.333)"/><path d="M11.76 0C11.76 6.49487 6.49487 11.76 4.673e-07 11.76-6.49487 11.76-11.76 6.49487-11.76 4.673e-07-11.76-6.49487-6.49487-11.76 5.06242e-07-11.76 6.49487-11.76 11.76-6.49487 11.76 0Z" transform="matrix(1.00348 0 0 1 178.341 311)"/><path d="M11.76 0C11.76 6.49487 6.49487 11.76 4.673e-07 11.76-6.49487 11.76-11.76 6.49487-11.76 4.673e-07-11.76-6.49487-6.49487-11.76 5.06242e-07-11.76 6.49487-11.76 11.76-6.49487 11.76 0Z" transform="matrix(1.00348 0 0 1 178.341 327.333)"/><path d="M11.76 0C11.76 6.49487 6.49487 11.76 4.673e-07 11.76-6.49487 11.76-11.76 6.49487-11.76 4.673e-07-11.76-6.49487-6.49487-11.76 5.06242e-07-11.76 6.49487-11.76 11.76-6.49487 11.76 0Z" transform="matrix(1.00348 0 0 1 178.341 343.667)"/><path d="M11.76 0C11.76 6.49487 6.49487 11.76 4.673e-07 11.76-6.49487 11.76-11.76 6.49487-11.76 4.673e-07-11.76-6.49487-6.49487-11.76 5.06242e-07-11.76 6.49487-11.76 11.76-6.49487 11.76 0Z" transform="matrix(1.00348 0 0 1 178.341 360)"/><path d="M11.76 0C11.76 6.49487 6.49487 11.76 4.673e-07 11.76-6.49487 11.76-11.76 6.49487-11.76 4.673e-07-11.76-6.49487-6.49487-11.76 5.06242e-07-11.76 6.49487-11.76 11.76-6.49487 11.76 0Z" transform="matrix(1.00348 0 0 1 178.341 376.333)"/><path d="M11.76 0C11.76 6.49487 6.49487 11.76 4.673e-07 11.76-6.49487 11.76-11.76 6.49487-11.76 4.673e-07-11.76-6.49487-6.49487-11.76 5.06242e-07-11.76 6.49487-11.76 11.76-6.49487 11.76 0Z" transform="matrix(1.00348 0 0 1 178.341 392.667)"/><path d="M11.76 0C11.76 6.49487 6.49487 11.76 4.673e-07 11.76-6.49487 11.76-11.76 6.49487-11.76 4.673e-07-11.76-6.49487-6.49487-11.76 5.06242e-07-11.76 6.49487-11.76 11.76-6.49487 11.76 0Z" transform="matrix(1.00348 0 0 1 194.732 311)"/><path d="M11.76 0C11.76 6.49487 6.49487 11.76 4.673e-07 11.76-6.49487 11.76-11.76 6.49487-11.76 4.673e-07-11.76-6.49487-6.49487-11.76 5.06242e-07-11.76 6.49487-11.76 11.76-6.49487 11.76 0Z" transform="matrix(1.00348 0 0 1 194.732 327.333)"/><path d="M11.76 0C11.76 6.49487 6.49487 11.76 4.673e-07 11.76-6.49487 11.76-11.76 6.49487-11.76 4.673e-07-11.76-6.49487-6.49487-11.76 5.06242e-07-11.76 6.49487-11.76 11.76-6.49487 11.76 0Z" transform="matrix(1.00348 0 0 1 194.732 343.667)"/><path d="M11.76 0C11.76 6.49487 6.49487 11.76 4.673e-07 11.76-6.49487 11.76-11.76 6.49487-11.76 4.673e-07-11.76-6.49487-6.49487-11.76 5.06242e-07-11.76 6.49487-11.76 11.76-6.49487 11.76 0Z" transform="matrix(1.00348 0 0 1 194.732 360)"/><path d="M11.76 0C11.76 6.49487 6.49487 11.76 4.673e-07 11.76-6.49487 11.76-11.76 6.49487-11.76 4.673e-07-11.76-6.49487-6.49487-11.76 5.06242e-07-11.76 6.49487-11.76 11.76-6.49487 11.76 0Z" transform="matrix(1.00348 0 0 1 194.732 376.333)"/><path d="M11.76 0C11.76 6.49487 6.49487 11.76 4.673e-07 11.76-6.49487 11.76-11.76 6.49487-11.76 4.673e-07-11.76-6.49487-6.49487-11.76 5.06242e-07-11.76 6.49487-11.76 11.76-6.49487 11.76 0Z" transform="matrix(1.00348 0 0 1 194.732 392.667)"/><path d="M11.76 0C11.76 6.49487 6.49487 11.76 4.673e-07 11.76-6.49487 11.76-11.76 6.49487-11.76 4.673e-07-11.76-6.49487-6.49487-11.76 5.06242e-07-11.76 6.49487-11.76 11.76-6.49487 11.76 0Z" transform="matrix(1.00348 0 0 1 211.122 311)"/><path d="M11.76 0C11.76 6.49487 6.49487 11.76 4.673e-07 11.76-6.49487 11.76-11.76 6.49487-11.76 4.673e-07-11.76-6.49487-6.49487-11.76 5.06242e-07-11.76 6.49487-11.76 11.76-6.49487 11.76 0Z" transform="matrix(1.00348 0 0 1 211.122 327.333)"/><path d="M11.76 0C11.76 6.49487 6.49487 11.76 4.673e-07 11.76-6.49487 11.76-11.76 6.49487-11.76 4.673e-07-11.76-6.49487-6.49487-11.76 5.06242e-07-11.76 6.49487-11.76 11.76-6.49487 11.76 0Z" transform="matrix(1.00348 0 0 1 211.122 343.667)"/><path d="M11.76 0C11.76 6.49487 6.49487 11.76 4.673e-07 11.76-6.49487 11.76-11.76 6.49487-11.76 4.673e-07-11.76-6.49487-6.49487-11.76 5.06242e-07-11.76 6.49487-11.76 11.76-6.49487 11.76 0Z" transform="matrix(1.00348 0 0 1 211.122 360)"/><path d="M11.76 0C11.76 6.49487 6.49487 11.76 4.673e-07 11.76-6.49487 11.76-11.76 6.49487-11.76 4.673e-07-11.76-6.49487-6.49487-11.76 5.06242e-07-11.76 6.49487-11.76 11.76-6.49487 11.76 0Z" transform="matrix(1.00348 0 0 1 211.122 376.333)"/><path d="M11.76 0C11.76 6.49487 6.49487 11.76 4.673e-07 11.76-6.49487 11.76-11.76 6.49487-11.76 4.673e-07-11.76-6.49487-6.49487-11.76 5.06242e-07-11.76 6.49487-11.76 11.76-6.49487 11.76 0Z" transform="matrix(1.00348 0 0 1 211.122 392.667)"/><path d="M11.76 0C11.76 6.49487 6.49487 11.76 4.673e-07 11.76-6.49487 11.76-11.76 6.49487-11.76 4.673e-07-11.76-6.49487-6.49487-11.76 5.06242e-07-11.76 6.49487-11.76 11.76-6.49487 11.76 0Z" transform="matrix(1.00348 0 0 1 227.512 311)"/><path d="M11.76 0C11.76 6.49487 6.49487 11.76 4.673e-07 11.76-6.49487 11.76-11.76 6.49487-11.76 4.673e-07-11.76-6.49487-6.49487-11.76 5.06242e-07-11.76 6.49487-11.76 11.76-6.49487 11.76 0Z" transform="matrix(1.00348 0 0 1 227.512 327.333)"/><path d="M11.76 0C11.76 6.49487 6.49487 11.76 4.673e-07 11.76-6.49487 11.76-11.76 6.49487-11.76 4.673e-07-11.76-6.49487-6.49487-11.76 5.06242e-07-11.76 6.49487-11.76 11.76-6.49487 11.76 0Z" transform="matrix(1.00348 0 0 1 227.512 343.667)"/><path d="M11.76 0C11.76 6.49487 6.49487 11.76 4.673e-07 11.76-6.49487 11.76-11.76 6.49487-11.76 4.673e-07-11.76-6.49487-6.49487-11.76 5.06242e-07-11.76 6.49487-11.76 11.76-6.49487 11.76 0Z" transform="matrix(1.00348 0 0 1 227.512 360)"/><path d="M11.76 0C11.76 6.49487 6.49487 11.76 4.673e-07 11.76-6.49487 11.76-11.76 6.49487-11.76 4.673e-07-11.76-6.49487-6.49487-11.76 5.06242e-07-11.76 6.49487-11.76 11.76-6.49487 11.76 0Z" transform="matrix(1.00348 0 0 1 227.512 376.333)"/><path d="M11.76 0C11.76 6.49487 6.49487 11.76 4.673e-07 11.76-6.49487 11.76-11.76 6.49487-11.76 4.673e-07-11.76-6.49487-6.49487-11.76 5.06242e-07-11.76 6.49487-11.76 11.76-6.49487 11.76 0Z" transform="matrix(1.00348 0 0 1 227.512 392.667)"/><path d="M11.76 0C11.76 6.49487 6.49487 11.76 4.673e-07 11.76-6.49487 11.76-11.76 6.49487-11.76 4.673e-07-11.76-6.49487-6.49487-11.76 5.06242e-07-11.76 6.49487-11.76 11.76-6.49487 11.76 0Z" transform="matrix(1.00348 0 0 1 227.512 409)"/><path d="M11.76 0C11.76 6.49487 6.49487 11.76 4.673e-07 11.76-6.49487 11.76-11.76 6.49487-11.76 4.673e-07-11.76-6.49487-6.49487-11.76 5.06242e-07-11.76 6.49487-11.76 11.76-6.49487 11.76 0Z" transform="matrix(1.00348 0 0 1 243.902 311)"/><path d="M11.76 0C11.76 6.49487 6.49487 11.76 4.673e-07 11.76-6.49487 11.76-11.76 6.49487-11.76 4.673e-07-11.76-6.49487-6.49487-11.76 5.06242e-07-11.76 6.49487-11.76 11.76-6.49487 11.76 0Z" transform="matrix(1.00348 0 0 1 243.902 327.333)"/><path d="M11.76 0C11.76 6.49487 6.49487 11.76 4.673e-07 11.76-6.49487 11.76-11.76 6.49487-11.76 4.673e-07-11.76-6.49487-6.49487-11.76 5.06242e-07-11.76 6.49487-11.76 11.76-6.49487 11.76 0Z" transform="matrix(1.00348 0 0 1 243.902 343.667)"/><path d="M11.76 0C11.76 6.49487 6.49487 11.76 4.673e-07 11.76-6.49487 11.76-11.76 6.49487-11.76 4.673e-07-11.76-6.49487-6.49487-11.76 5.06242e-07-11.76 6.49487-11.76 11.76-6.49487 11.76 0Z" transform="matrix(1.00348 0 0 1 243.902 360)"/><path d="M11.76 0C11.76 6.49487 6.49487 11.76 4.673e-07 11.76-6.49487 11.76-11.76 6.49487-11.76 4.673e-07-11.76-6.49487-6.49487-11.76 5.06242e-07-11.76 6.49487-11.76 11.76-6.49487 11.76 0Z" transform="matrix(1.00348 0 0 1 243.902 376.333)"/><path d="M11.76 0C11.76 6.49487 6.49487 11.76 4.673e-07 11.76-6.49487 11.76-11.76 6.49487-11.76 4.673e-07-11.76-6.49487-6.49487-11.76 5.06242e-07-11.76 6.49487-11.76 11.76-6.49487 11.76 0Z" transform="matrix(1.00348 0 0 1 243.902 392.667)"/><path d="M11.76 0C11.76 6.49487 6.49487 11.76 4.673e-07 11.76-6.49487 11.76-11.76 6.49487-11.76 4.673e-07-11.76-6.49487-6.49487-11.76 5.06242e-07-11.76 6.49487-11.76 11.76-6.49487 11.76 0Z" transform="matrix(1.00348 0 0 1 243.902 409)"/><path d="M11.76 0C11.76 6.49487 6.49487 11.76 4.673e-07 11.76-6.49487 11.76-11.76 6.49487-11.76 4.673e-07-11.76-6.49487-6.49487-11.76 5.06242e-07-11.76 6.49487-11.76 11.76-6.49487 11.76 0Z" transform="matrix(1.00348 0 0 1 243.902 425.333)"/><path d="M11.76 0C11.76 6.49487 6.49487 11.76 4.673e-07 11.76-6.49487 11.76-11.76 6.49487-11.76 4.673e-07-11.76-6.49487-6.49487-11.76 5.06242e-07-11.76 6.49487-11.76 11.76-6.49487 11.76 0Z" transform="matrix(1.00348 0 0 1 260.293 327.333)"/><path d="M11.76 0C11.76 6.49487 6.49487 11.76 4.673e-07 11.76-6.49487 11.76-11.76 6.49487-11.76 4.673e-07-11.76-6.49487-6.49487-11.76 5.06242e-07-11.76 6.49487-11.76 11.76-6.49487 11.76 0Z" transform="matrix(1.00348 0 0 1 260.293 343.667)"/><path d="M11.76 0C11.76 6.49487 6.49487 11.76 4.673e-07 11.76-6.49487 11.76-11.76 6.49487-11.76 4.673e-07-11.76-6.49487-6.49487-11.76 5.06242e-07-11.76 6.49487-11.76 11.76-6.49487 11.76 0Z" transform="matrix(1.00348 0 0 1 260.293 360)"/><path d="M11.76 0C11.76 6.49487 6.49487 11.76 4.673e-07 11.76-6.49487 11.76-11.76 6.49487-11.76 4.673e-07-11.76-6.49487-6.49487-11.76 5.06242e-07-11.76 6.49487-11.76 11.76-6.49487 11.76 0Z" transform="matrix(1.00348 0 0 1 260.293 376.333)"/><path d="M11.76 0C11.76 6.49487 6.49487 11.76 4.673e-07 11.76-6.49487 11.76-11.76 6.49487-11.76 4.673e-07-11.76-6.49487-6.49487-11.76 5.06242e-07-11.76 6.49487-11.76 11.76-6.49487 11.76 0Z" transform="matrix(1.00348 0 0 1 260.293 392.667)"/><path d="M11.76 0C11.76 6.49487 6.49487 11.76 4.673e-07 11.76-6.49487 11.76-11.76 6.49487-11.76 4.673e-07-11.76-6.49487-6.49487-11.76 5.06242e-07-11.76 6.49487-11.76 11.76-6.49487 11.76 0Z" transform="matrix(1.00348 0 0 1 260.293 409)"/><path d="M11.76 0C11.76 6.49487 6.49487 11.76 4.673e-07 11.76-6.49487 11.76-11.76 6.49487-11.76 4.673e-07-11.76-6.49487-6.49487-11.76 5.06242e-07-11.76 6.49487-11.76 11.76-6.49487 11.76 0Z" transform="matrix(1.00348 0 0 1 260.293 425.333)"/><path d="M11.76 0C11.76 6.49487 6.49487 11.76 4.673e-07 11.76-6.49487 11.76-11.76 6.49487-11.76 4.673e-07-11.76-6.49487-6.49487-11.76 5.06242e-07-11.76 6.49487-11.76 11.76-6.49487 11.76 0Z" transform="matrix(1.00348 0 0 1 276.683 311)"/><path d="M11.76 0C11.76 6.49487 6.49487 11.76 4.673e-07 11.76-6.49487 11.76-11.76 6.49487-11.76 4.673e-07-11.76-6.49487-6.49487-11.76 5.06242e-07-11.76 6.49487-11.76 11.76-6.49487 11.76 0Z" transform="matrix(1.00348 0 0 1 276.683 327.333)"/><path d="M11.76 0C11.76 6.49487 6.49487 11.76 4.673e-07 11.76-6.49487 11.76-11.76 6.49487-11.76 4.673e-07-11.76-6.49487-6.49487-11.76 5.06242e-07-11.76 6.49487-11.76 11.76-6.49487 11.76 0Z" transform="matrix(1.00348 0 0 1 276.683 343.667)"/><path d="M11.76 0C11.76 6.49487 6.49487 11.76 4.673e-07 11.76-6.49487 11.76-11.76 6.49487-11.76 4.673e-07-11.76-6.49487-6.49487-11.76 5.06242e-07-11.76 6.49487-11.76 11.76-6.49487 11.76 0Z" transform="matrix(1.00348 0 0 1 276.683 360)"/><path d="M11.76 0C11.76 6.49487 6.49487 11.76 4.673e-07 11.76-6.49487 11.76-11.76 6.49487-11.76 4.673e-07-11.76-6.49487-6.49487-11.76 5.06242e-07-11.76 6.49487-11.76 11.76-6.49487 11.76 0Z" transform="matrix(1.00348 0 0 1 276.683 376.333)"/><path d="M11.76 0C11.76 6.49487 6.49487 11.76 4.673e-07 11.76-6.49487 11.76-11.76 6.49487-11.76 4.673e-07-11.76-6.49487-6.49487-11.76 5.06242e-07-11.76 6.49487-11.76 11.76-6.49487 11.76 0Z" transform="matrix(1.00348 0 0 1 276.683 392.667)"/><path d="M11.76 0C11.76 6.49487 6.49487 11.76 4.673e-07 11.76-6.49487 11.76-11.76 6.49487-11.76 4.673e-07-11.76-6.49487-6.49487-11.76 5.06242e-07-11.76 6.49487-11.76 11.76-6.49487 11.76 0Z" transform="matrix(1.00348 0 0 1 276.683 409)"/><path d="M11.76 0C11.76 6.49487 6.49487 11.76 4.673e-07 11.76-6.49487 11.76-11.76 6.49487-11.76 4.673e-07-11.76-6.49487-6.49487-11.76 5.06242e-07-11.76 6.49487-11.76 11.76-6.49487 11.76 0Z" transform="matrix(1.00348 0 0 1 276.683 425.333)"/><path d="M11.76 0C11.76 6.49487 6.49487 11.76 4.673e-07 11.76-6.49487 11.76-11.76 6.49487-11.76 4.673e-07-11.76-6.49487-6.49487-11.76 5.06242e-07-11.76 6.49487-11.76 11.76-6.49487 11.76 0Z" transform="matrix(1.00348 0 0 1 293.073 311)"/><path d="M11.76 0C11.76 6.49487 6.49487 11.76 4.673e-07 11.76-6.49487 11.76-11.76 6.49487-11.76 4.673e-07-11.76-6.49487-6.49487-11.76 5.06242e-07-11.76 6.49487-11.76 11.76-6.49487 11.76 0Z" transform="matrix(1.00348 0 0 1 293.073 327.333)"/><path d="M11.76 0C11.76 6.49487 6.49487 11.76 4.673e-07 11.76-6.49487 11.76-11.76 6.49487-11.76 4.673e-07-11.76-6.49487-6.49487-11.76 5.06242e-07-11.76 6.49487-11.76 11.76-6.49487 11.76 0Z" transform="matrix(1.00348 0 0 1 293.073 343.667)"/><path d="M11.76 0C11.76 6.49487 6.49487 11.76 4.673e-07 11.76-6.49487 11.76-11.76 6.49487-11.76 4.673e-07-11.76-6.49487-6.49487-11.76 5.06242e-07-11.76 6.49487-11.76 11.76-6.49487 11.76 0Z" transform="matrix(1.00348 0 0 1 293.073 360)"/><path d="M11.76 0C11.76 6.49487 6.49487 11.76 4.673e-07 11.76-6.49487 11.76-11.76 6.49487-11.76 4.673e-07-11.76-6.49487-6.49487-11.76 5.06242e-07-11.76 6.49487-11.76 11.76-6.49487 11.76 0Z" transform="matrix(1.00348 0 0 1 293.073 376.333)"/><path d="M11.76 0C11.76 6.49487 6.49487 11.76 4.673e-07 11.76-6.49487 11.76-11.76 6.49487-11.76 4.673e-07-11.76-6.49487-6.49487-11.76 5.06242e-07-11.76 6.49487-11.76 11.76-6.49487 11.76 0Z" transform="matrix(1.00348 0 0 1 293.073 392.667)"/><path d="M11.76 0C11.76 6.49487 6.49487 11.76 4.673e-07 11.76-6.49487 11.76-11.76 6.49487-11.76 4.673e-07-11.76-6.49487-6.49487-11.76 5.06242e-07-11.76 6.49487-11.76 11.76-6.49487 11.76 0Z" transform="matrix(1.00348 0 0 1 293.073 409)"/><path d="M11.76 0C11.76 6.49487 6.49487 11.76 4.673e-07 11.76-6.49487 11.76-11.76 6.49487-11.76 4.673e-07-11.76-6.49487-6.49487-11.76 5.06242e-07-11.76 6.49487-11.76 11.76-6.49487 11.76 0Z" transform="matrix(1.00348 0 0 1 293.073 425.333)"/><path d="M11.76 0C11.76 6.49487 6.49487 11.76 4.673e-07 11.76-6.49487 11.76-11.76 6.49487-11.76 4.673e-07-11.76-6.49487-6.49487-11.76 5.06242e-07-11.76 6.49487-11.76 11.76-6.49487 11.76 0Z" transform="matrix(1.00348 0 0 1 309.463 311)"/><path d="M11.76 0C11.76 6.49487 6.49487 11.76 4.673e-07 11.76-6.49487 11.76-11.76 6.49487-11.76 4.673e-07-11.76-6.49487-6.49487-11.76 5.06242e-07-11.76 6.49487-11.76 11.76-6.49487 11.76 0Z" transform="matrix(1.00348 0 0 1 309.463 327.333)"/><path d="M11.76 0C11.76 6.49487 6.49487 11.76 4.673e-07 11.76-6.49487 11.76-11.76 6.49487-11.76 4.673e-07-11.76-6.49487-6.49487-11.76 5.06242e-07-11.76 6.49487-11.76 11.76-6.49487 11.76 0Z" transform="matrix(1.00348 0 0 1 309.463 343.667)"/><path d="M11.76 0C11.76 6.49487 6.49487 11.76 4.673e-07 11.76-6.49487 11.76-11.76 6.49487-11.76 4.673e-07-11.76-6.49487-6.49487-11.76 5.06242e-07-11.76 6.49487-11.76 11.76-6.49487 11.76 0Z" transform="matrix(1.00348 0 0 1 309.463 360)"/><path d="M11.76 0C11.76 6.49487 6.49487 11.76 4.673e-07 11.76-6.49487 11.76-11.76 6.49487-11.76 4.673e-07-11.76-6.49487-6.49487-11.76 5.06242e-07-11.76 6.49487-11.76 11.76-6.49487 11.76 0Z" transform="matrix(1.00348 0 0 1 309.463 376.333)"/><path d="M11.76 0C11.76 6.49487 6.49487 11.76 4.673e-07 11.76-6.49487 11.76-11.76 6.49487-11.76 4.673e-07-11.76-6.49487-6.49487-11.76 5.06242e-07-11.76 6.49487-11.76 11.76-6.49487 11.76 0Z" transform="matrix(1.00348 0 0 1 309.463 392.667)"/><path d="M11.76 0C11.76 6.49487 6.49487 11.76 4.673e-07 11.76-6.49487 11.76-11.76 6.49487-11.76 4.673e-07-11.76-6.49487-6.49487-11.76 5.06242e-07-11.76 6.49487-11.76 11.76-6.49487 11.76 0Z" transform="matrix(1.00348 0 0 1 309.463 409)"/><path d="M11.76 0C11.76 6.49487 6.49487 11.76 4.673e-07 11.76-6.49487 11.76-11.76 6.49487-11.76 4.673e-07-11.76-6.49487-6.49487-11.76 5.06242e-07-11.76 6.49487-11.76 11.76-6.49487 11.76 0Z" transform="matrix(1.00348 0 0 1 309.463 425.333)"/><path d="M11.76 0C11.76 6.49487 6.49487 11.76 4.673e-07 11.76-6.49487 11.76-11.76 6.49487-11.76 4.673e-07-11.76-6.49487-6.49487-11.76 5.06242e-07-11.76 6.49487-11.76 11.76-6.49487 11.76 0Z" transform="matrix(1.00348 0 0 1 325.854 278.333)"/><path d="M11.76 0C11.76 6.49487 6.49487 11.76 4.673e-07 11.76-6.49487 11.76-11.76 6.49487-11.76 4.673e-07-11.76-6.49487-6.49487-11.76 5.06242e-07-11.76 6.49487-11.76 11.76-6.49487 11.76 0Z" transform="matrix(1.00348 0 0 1 325.854 294.667)"/><path d="M11.76 0C11.76 6.49487 6.49487 11.76 4.673e-07 11.76-6.49487 11.76-11.76 6.49487-11.76 4.673e-07-11.76-6.49487-6.49487-11.76 5.06242e-07-11.76 6.49487-11.76 11.76-6.49487 11.76 0Z" transform="matrix(1.00348 0 0 1 325.854 311)"/><path d="M11.76 0C11.76 6.49487 6.49487 11.76 4.673e-07 11.76-6.49487 11.76-11.76 6.49487-11.76 4.673e-07-11.76-6.49487-6.49487-11.76 5.06242e-07-11.76 6.49487-11.76 11.76-6.49487 11.76 0Z" transform="matrix(1.00348 0 0 1 325.854 327.333)"/><path d="M11.76 0C11.76 6.49487 6.49487 11.76 4.673e-07 11.76-6.49487 11.76-11.76 6.49487-11.76 4.673e-07-11.76-6.49487-6.49487-11.76 5.06242e-07-11.76 6.49487-11.76 11.76-6.49487 11.76 0Z" transform="matrix(1.00348 0 0 1 325.854 343.667)"/><path d="M11.76 0C11.76 6.49487 6.49487 11.76 4.673e-07 11.76-6.49487 11.76-11.76 6.49487-11.76 4.673e-07-11.76-6.49487-6.49487-11.76 5.06242e-07-11.76 6.49487-11.76 11.76-6.49487 11.76 0Z" transform="matrix(1.00348 0 0 1 325.854 360)"/><path d="M11.76 0C11.76 6.49487 6.49487 11.76 4.673e-07 11.76-6.49487 11.76-11.76 6.49487-11.76 4.673e-07-11.76-6.49487-6.49487-11.76 5.06242e-07-11.76 6.49487-11.76 11.76-6.49487 11.76 0Z" transform="matrix(1.00348 0 0 1 325.854 376.333)"/><path d="M11.76 0C11.76 6.49487 6.49487 11.76 4.673e-07 11.76-6.49487 11.76-11.76 6.49487-11.76 4.673e-07-11.76-6.49487-6.49487-11.76 5.06242e-07-11.76 6.49487-11.76 11.76-6.49487 11.76 0Z" transform="matrix(1.00348 0 0 1 325.854 392.667)"/><path d="M11.76 0C11.76 6.49487 6.49487 11.76 4.673e-07 11.76-6.49487 11.76-11.76 6.49487-11.76 4.673e-07-11.76-6.49487-6.49487-11.76 5.06242e-07-11.76 6.49487-11.76 11.76-6.49487 11.76 0Z" transform="matrix(1.00348 0 0 1 325.854 409)"/><path d="M11.76 0C11.76 6.49487 6.49487 11.76 4.673e-07 11.76-6.49487 11.76-11.76 6.49487-11.76 4.673e-07-11.76-6.49487-6.49487-11.76 5.06242e-07-11.76 6.49487-11.76 11.76-6.49487 11.76 0Z" transform="matrix(1.00348 0 0 1 342.244 278.333)"/><path d="M11.76 0C11.76 6.49487 6.49487 11.76 4.673e-07 11.76-6.49487 11.76-11.76 6.49487-11.76 4.673e-07-11.76-6.49487-6.49487-11.76 5.06242e-07-11.76 6.49487-11.76 11.76-6.49487 11.76 0Z" transform="matrix(1.00348 0 0 1 342.244 294.667)"/><path d="M11.76 0C11.76 6.49487 6.49487 11.76 4.673e-07 11.76-6.49487 11.76-11.76 6.49487-11.76 4.673e-07-11.76-6.49487-6.49487-11.76 5.06242e-07-11.76 6.49487-11.76 11.76-6.49487 11.76 0Z" transform="matrix(1.00348 0 0 1 342.244 311)"/><path d="M11.76 0C11.76 6.49487 6.49487 11.76 4.673e-07 11.76-6.49487 11.76-11.76 6.49487-11.76 4.673e-07-11.76-6.49487-6.49487-11.76 5.06242e-07-11.76 6.49487-11.76 11.76-6.49487 11.76 0Z" transform="matrix(1.00348 0 0 1 342.244 327.333)"/><path d="M11.76 0C11.76 6.49487 6.49487 11.76 4.673e-07 11.76-6.49487 11.76-11.76 6.49487-11.76 4.673e-07-11.76-6.49487-6.49487-11.76 5.06242e-07-11.76 6.49487-11.76 11.76-6.49487 11.76 0Z" transform="matrix(1.00348 0 0 1 342.244 343.667)"/><path d="M11.76 0C11.76 6.49487 6.49487 11.76 4.673e-07 11.76-6.49487 11.76-11.76 6.49487-11.76 4.673e-07-11.76-6.49487-6.49487-11.76 5.06242e-07-11.76 6.49487-11.76 11.76-6.49487 11.76 0Z" transform="matrix(1.00348 0 0 1 342.244 360)"/><path d="M11.76 0C11.76 6.49487 6.49487 11.76 4.673e-07 11.76-6.49487 11.76-11.76 6.49487-11.76 4.673e-07-11.76-6.49487-6.49487-11.76 5.06242e-07-11.76 6.49487-11.76 11.76-6.49487 11.76 0Z" transform="matrix(1.00348 0 0 1 342.244 376.333)"/><path d="M11.76 0C11.76 6.49487 6.49487 11.76 4.673e-07 11.76-6.49487 11.76-11.76 6.49487-11.76 4.673e-07-11.76-6.49487-6.49487-11.76 5.06242e-07-11.76 6.49487-11.76 11.76-6.49487 11.76 0Z" transform="matrix(1.00348 0 0 1 342.244 392.667)"/><path d="M11.76 0C11.76 6.49487 6.49487 11.76 4.673e-07 11.76-6.49487 11.76-11.76 6.49487-11.76 4.673e-07-11.76-6.49487-6.49487-11.76 5.06242e-07-11.76 6.49487-11.76 11.76-6.49487 11.76 0Z" transform="matrix(1.00348 0 0 1 342.244 409)"/><path d="M11.76 0C11.76 6.49487 6.49487 11.76 4.673e-07 11.76-6.49487 11.76-11.76 6.49487-11.76 4.673e-07-11.76-6.49487-6.49487-11.76 5.06242e-07-11.76 6.49487-11.76 11.76-6.49487 11.76 0Z" transform="matrix(1.00348 0 0 1 358.634 278.333)"/><path d="M11.76 0C11.76 6.49487 6.49487 11.76 4.673e-07 11.76-6.49487 11.76-11.76 6.49487-11.76 4.673e-07-11.76-6.49487-6.49487-11.76 5.06242e-07-11.76 6.49487-11.76 11.76-6.49487 11.76 0Z" transform="matrix(1.00348 0 0 1 358.634 294.667)"/><path d="M11.76 0C11.76 6.49487 6.49487 11.76 4.673e-07 11.76-6.49487 11.76-11.76 6.49487-11.76 4.673e-07-11.76-6.49487-6.49487-11.76 5.06242e-07-11.76 6.49487-11.76 11.76-6.49487 11.76 0Z" transform="matrix(1.00348 0 0 1 358.634 311)"/><path d="M11.76 0C11.76 6.49487 6.49487 11.76 4.673e-07 11.76-6.49487 11.76-11.76 6.49487-11.76 4.673e-07-11.76-6.49487-6.49487-11.76 5.06242e-07-11.76 6.49487-11.76 11.76-6.49487 11.76 0Z" transform="matrix(1.00348 0 0 1 358.634 327.333)"/><path d="M11.76 0C11.76 6.49487 6.49487 11.76 4.673e-07 11.76-6.49487 11.76-11.76 6.49487-11.76 4.673e-07-11.76-6.49487-6.49487-11.76 5.06242e-07-11.76 6.49487-11.76 11.76-6.49487 11.76 0Z" transform="matrix(1.00348 0 0 1 358.634 343.667)"/><path d="M11.76 0C11.76 6.49487 6.49487 11.76 4.673e-07 11.76-6.49487 11.76-11.76 6.49487-11.76 4.673e-07-11.76-6.49487-6.49487-11.76 5.06242e-07-11.76 6.49487-11.76 11.76-6.49487 11.76 0Z" transform="matrix(1.00348 0 0 1 358.634 360)"/><path d="M11.76 0C11.76 6.49487 6.49487 11.76 4.673e-07 11.76-6.49487 11.76-11.76 6.49487-11.76 4.673e-07-11.76-6.49487-6.49487-11.76 5.06242e-07-11.76 6.49487-11.76 11.76-6.49487 11.76 0Z" transform="matrix(1.00348 0 0 1 358.634 376.333)"/><path d="M11.76 0C11.76 6.49487 6.49487 11.76 4.673e-07 11.76-6.49487 11.76-11.76 6.49487-11.76 4.673e-07-11.76-6.49487-6.49487-11.76 5.06242e-07-11.76 6.49487-11.76 11.76-6.49487 11.76 0Z" transform="matrix(1.00348 0 0 1 358.634 392.667)"/><path d="M11.76 0C11.76 6.49487 6.49487 11.76 4.673e-07 11.76-6.49487 11.76-11.76 6.49487-11.76 4.673e-07-11.76-6.49487-6.49487-11.76 5.06242e-07-11.76 6.49487-11.76 11.76-6.49487 11.76 0Z" transform="matrix(1.00348 0 0 1 358.634 409)"/><path d="M11.76 0C11.76 6.49487 6.49487 11.76 4.673e-07 11.76-6.49487 11.76-11.76 6.49487-11.76 4.673e-07-11.76-6.49487-6.49487-11.76 5.06242e-07-11.76 6.49487-11.76 11.76-6.49487 11.76 0Z" transform="matrix(1.00348 0 0 1 358.634 425.333)"/><path d="M11.76 0C11.76 6.49487 6.49487 11.76 4.673e-07 11.76-6.49487 11.76-11.76 6.49487-11.76 4.673e-07-11.76-6.49487-6.49487-11.76 5.06242e-07-11.76 6.49487-11.76 11.76-6.49487 11.76 0Z" transform="matrix(1.00348 0 0 1 375.024 294.667)"/><path d="M11.76 0C11.76 6.49487 6.49487 11.76 4.673e-07 11.76-6.49487 11.76-11.76 6.49487-11.76 4.673e-07-11.76-6.49487-6.49487-11.76 5.06242e-07-11.76 6.49487-11.76 11.76-6.49487 11.76 0Z" transform="matrix(1.00348 0 0 1 375.024 311)"/><path d="M11.76 0C11.76 6.49487 6.49487 11.76 4.673e-07 11.76-6.49487 11.76-11.76 6.49487-11.76 4.673e-07-11.76-6.49487-6.49487-11.76 5.06242e-07-11.76 6.49487-11.76 11.76-6.49487 11.76 0Z" transform="matrix(1.00348 0 0 1 375.024 327.333)"/><path d="M11.76 0C11.76 6.49487 6.49487 11.76 4.673e-07 11.76-6.49487 11.76-11.76 6.49487-11.76 4.673e-07-11.76-6.49487-6.49487-11.76 5.06242e-07-11.76 6.49487-11.76 11.76-6.49487 11.76 0Z" transform="matrix(1.00348 0 0 1 375.024 343.667)"/><path d="M11.76 0C11.76 6.49487 6.49487 11.76 4.673e-07 11.76-6.49487 11.76-11.76 6.49487-11.76 4.673e-07-11.76-6.49487-6.49487-11.76 5.06242e-07-11.76 6.49487-11.76 11.76-6.49487 11.76 0Z" transform="matrix(1.00348 0 0 1 375.024 360)"/><path d="M11.76 0C11.76 6.49487 6.49487 11.76 4.673e-07 11.76-6.49487 11.76-11.76 6.49487-11.76 4.673e-07-11.76-6.49487-6.49487-11.76 5.06242e-07-11.76 6.49487-11.76 11.76-6.49487 11.76 0Z" transform="matrix(1.00348 0 0 1 375.024 376.333)"/><path d="M11.76 0C11.76 6.49487 6.49487 11.76 4.673e-07 11.76-6.49487 11.76-11.76 6.49487-11.76 4.673e-07-11.76-6.49487-6.49487-11.76 5.06242e-07-11.76 6.49487-11.76 11.76-6.49487 11.76 0Z" transform="matrix(1.00348 0 0 1 375.024 392.667)"/><path d="M11.76 0C11.76 6.49487 6.49487 11.76 4.673e-07 11.76-6.49487 11.76-11.76 6.49487-11.76 4.673e-07-11.76-6.49487-6.49487-11.76 5.06242e-07-11.76 6.49487-11.76 11.76-6.49487 11.76 0Z" transform="matrix(1.00348 0 0 1 375.024 409)"/><path d="M11.76 0C11.76 6.49487 6.49487 11.76 4.673e-07 11.76-6.49487 11.76-11.76 6.49487-11.76 4.673e-07-11.76-6.49487-6.49487-11.76 5.06242e-07-11.76 6.49487-11.76 11.76-6.49487 11.76 0Z" transform="matrix(1.00348 0 0 1 375.024 425.333)"/><path d="M11.76 0C11.76 6.49487 6.49487 11.76 4.673e-07 11.76-6.49487 11.76-11.76 6.49487-11.76 4.673e-07-11.76-6.49487-6.49487-11.76 5.06242e-07-11.76 6.49487-11.76 11.76-6.49487 11.76 0Z" transform="matrix(1.00348 0 0 1 391.415 327.333)"/><path d="M11.76 0C11.76 6.49487 6.49487 11.76 4.673e-07 11.76-6.49487 11.76-11.76 6.49487-11.76 4.673e-07-11.76-6.49487-6.49487-11.76 5.06242e-07-11.76 6.49487-11.76 11.76-6.49487 11.76 0Z" transform="matrix(1.00348 0 0 1 391.415 343.667)"/><path d="M11.76 0C11.76 6.49487 6.49487 11.76 4.673e-07 11.76-6.49487 11.76-11.76 6.49487-11.76 4.673e-07-11.76-6.49487-6.49487-11.76 5.06242e-07-11.76 6.49487-11.76 11.76-6.49487 11.76 0Z" transform="matrix(1.00348 0 0 1 391.415 360)"/><path d="M11.76 0C11.76 6.49487 6.49487 11.76 4.673e-07 11.76-6.49487 11.76-11.76 6.49487-11.76 4.673e-07-11.76-6.49487-6.49487-11.76 5.06242e-07-11.76 6.49487-11.76 11.76-6.49487 11.76 0Z" transform="matrix(1.00348 0 0 1 391.415 376.333)"/><path d="M11.76 0C11.76 6.49487 6.49487 11.76 4.673e-07 11.76-6.49487 11.76-11.76 6.49487-11.76 4.673e-07-11.76-6.49487-6.49487-11.76 5.06242e-07-11.76 6.49487-11.76 11.76-6.49487 11.76 0Z" transform="matrix(1.00348 0 0 1 391.415 392.667)"/><path d="M11.76 0C11.76 6.49487 6.49487 11.76 4.673e-07 11.76-6.49487 11.76-11.76 6.49487-11.76 4.673e-07-11.76-6.49487-6.49487-11.76 5.06242e-07-11.76 6.49487-11.76 11.76-6.49487 11.76 0Z" transform="matrix(1.00348 0 0 1 391.415 409)"/><path d="M11.76 0C11.76 6.49487 6.49487 11.76 4.673e-07 11.76-6.49487 11.76-11.76 6.49487-11.76 4.673e-07-11.76-6.49487-6.49487-11.76 5.06242e-07-11.76 6.49487-11.76 11.76-6.49487 11.76 0Z" transform="matrix(1.00348 0 0 1 391.415 425.333)"/><path d="M11.76 0C11.76 6.49487 6.49487 11.76 4.673e-07 11.76-6.49487 11.76-11.76 6.49487-11.76 4.673e-07-11.76-6.49487-6.49487-11.76 5.06242e-07-11.76 6.49487-11.76 11.76-6.49487 11.76 0Z" transform="matrix(1.00348 0 0 1 407.805 278.333)"/><path d="M11.76 0C11.76 6.49487 6.49487 11.76 4.673e-07 11.76-6.49487 11.76-11.76 6.49487-11.76 4.673e-07-11.76-6.49487-6.49487-11.76 5.06242e-07-11.76 6.49487-11.76 11.76-6.49487 11.76 0Z" transform="matrix(1.00348 0 0 1 407.805 294.667)"/><path d="M11.76 0C11.76 6.49487 6.49487 11.76 4.673e-07 11.76-6.49487 11.76-11.76 6.49487-11.76 4.673e-07-11.76-6.49487-6.49487-11.76 5.06242e-07-11.76 6.49487-11.76 11.76-6.49487 11.76 0Z" transform="matrix(1.00348 0 0 1 407.805 311)"/><path d="M11.76 0C11.76 6.49487 6.49487 11.76 4.673e-07 11.76-6.49487 11.76-11.76 6.49487-11.76 4.673e-07-11.76-6.49487-6.49487-11.76 5.06242e-07-11.76 6.49487-11.76 11.76-6.49487 11.76 0Z" transform="matrix(1.00348 0 0 1 407.805 327.333)"/><path d="M11.76 0C11.76 6.49487 6.49487 11.76 4.673e-07 11.76-6.49487 11.76-11.76 6.49487-11.76 4.673e-07-11.76-6.49487-6.49487-11.76 5.06242e-07-11.76 6.49487-11.76 11.76-6.49487 11.76 0Z" transform="matrix(1.00348 0 0 1 407.805 343.667)"/><path d="M11.76 0C11.76 6.49487 6.49487 11.76 4.673e-07 11.76-6.49487 11.76-11.76 6.49487-11.76 4.673e-07-11.76-6.49487-6.49487-11.76 5.06242e-07-11.76 6.49487-11.76 11.76-6.49487 11.76 0Z" transform="matrix(1.00348 0 0 1 407.805 360)"/><path d="M11.76 0C11.76 6.49487 6.49487 11.76 4.673e-07 11.76-6.49487 11.76-11.76 6.49487-11.76 4.673e-07-11.76-6.49487-6.49487-11.76 5.06242e-07-11.76 6.49487-11.76 11.76-6.49487 11.76 0Z" transform="matrix(1.00348 0 0 1 407.805 376.333)"/><path d="M11.76 0C11.76 6.49487 6.49487 11.76 4.673e-07 11.76-6.49487 11.76-11.76 6.49487-11.76 4.673e-07-11.76-6.49487-6.49487-11.76 5.06242e-07-11.76 6.49487-11.76 11.76-6.49487 11.76 0Z" transform="matrix(1.00348 0 0 1 407.805 392.667)"/><path d="M11.76 0C11.76 6.49487 6.49487 11.76 4.673e-07 11.76-6.49487 11.76-11.76 6.49487-11.76 4.673e-07-11.76-6.49487-6.49487-11.76 5.06242e-07-11.76 6.49487-11.76 11.76-6.49487 11.76 0Z" transform="matrix(1.00348 0 0 1 407.805 409)"/><path d="M11.76 0C11.76 6.49487 6.49487 11.76 4.673e-07 11.76-6.49487 11.76-11.76 6.49487-11.76 4.673e-07-11.76-6.49487-6.49487-11.76 5.06242e-07-11.76 6.49487-11.76 11.76-6.49487 11.76 0Z" transform="matrix(1.00348 0 0 1 407.805 425.333)"/><path d="M11.76 0C11.76 6.49487 6.49487 11.76 4.673e-07 11.76-6.49487 11.76-11.76 6.49487-11.76 4.673e-07-11.76-6.49487-6.49487-11.76 5.06242e-07-11.76 6.49487-11.76 11.76-6.49487 11.76 0Z" transform="matrix(1.00348 0 0 1 424.195 278.333)"/><path d="M11.76 0C11.76 6.49487 6.49487 11.76 4.673e-07 11.76-6.49487 11.76-11.76 6.49487-11.76 4.673e-07-11.76-6.49487-6.49487-11.76 5.06242e-07-11.76 6.49487-11.76 11.76-6.49487 11.76 0Z" transform="matrix(1.00348 0 0 1 424.195 294.667)"/><path d="M11.76 0C11.76 6.49487 6.49487 11.76 4.673e-07 11.76-6.49487 11.76-11.76 6.49487-11.76 4.673e-07-11.76-6.49487-6.49487-11.76 5.06242e-07-11.76 6.49487-11.76 11.76-6.49487 11.76 0Z" transform="matrix(1.00348 0 0 1 424.195 311)"/><path d="M11.76 0C11.76 6.49487 6.49487 11.76 4.673e-07 11.76-6.49487 11.76-11.76 6.49487-11.76 4.673e-07-11.76-6.49487-6.49487-11.76 5.06242e-07-11.76 6.49487-11.76 11.76-6.49487 11.76 0Z" transform="matrix(1.00348 0 0 1 424.195 327.333)"/><path d="M11.76 0C11.76 6.49487 6.49487 11.76 4.673e-07 11.76-6.49487 11.76-11.76 6.49487-11.76 4.673e-07-11.76-6.49487-6.49487-11.76 5.06242e-07-11.76 6.49487-11.76 11.76-6.49487 11.76 0Z" transform="matrix(1.00348 0 0 1 424.195 343.667)"/><path d="M11.76 0C11.76 6.49487 6.49487 11.76 4.673e-07 11.76-6.49487 11.76-11.76 6.49487-11.76 4.673e-07-11.76-6.49487-6.49487-11.76 5.06242e-07-11.76 6.49487-11.76 11.76-6.49487 11.76 0Z" transform="matrix(1.00348 0 0 1 424.195 360)"/><path d="M11.76 0C11.76 6.49487 6.49487 11.76 4.673e-07 11.76-6.49487 11.76-11.76 6.49487-11.76 4.673e-07-11.76-6.49487-6.49487-11.76 5.06242e-07-11.76 6.49487-11.76 11.76-6.49487 11.76 0Z" transform="matrix(1.00348 0 0 1 424.195 376.333)"/><path d="M11.76 0C11.76 6.49487 6.49487 11.76 4.673e-07 11.76-6.49487 11.76-11.76 6.49487-11.76 4.673e-07-11.76-6.49487-6.49487-11.76 5.06242e-07-11.76 6.49487-11.76 11.76-6.49487 11.76 0Z" transform="matrix(1.00348 0 0 1 424.195 392.667)"/><path d="M11.76 0C11.76 6.49487 6.49487 11.76 4.673e-07 11.76-6.49487 11.76-11.76 6.49487-11.76 4.673e-07-11.76-6.49487-6.49487-11.76 5.06242e-07-11.76 6.49487-11.76 11.76-6.49487 11.76 0Z" transform="matrix(1.00348 0 0 1 424.195 409)"/><path d="M11.76 0C11.76 6.49487 6.49487 11.76 4.673e-07 11.76-6.49487 11.76-11.76 6.49487-11.76 4.673e-07-11.76-6.49487-6.49487-11.76 5.06242e-07-11.76 6.49487-11.76 11.76-6.49487 11.76 0Z" transform="matrix(1.00348 0 0 1 424.195 425.333)"/><path d="M11.76 0C11.76 6.49487 6.49487 11.76 4.673e-07 11.76-6.49487 11.76-11.76 6.49487-11.76 4.673e-07-11.76-6.49487-6.49487-11.76 5.06242e-07-11.76 6.49487-11.76 11.76-6.49487 11.76 0Z" transform="matrix(1.00348 0 0 1 440.585 278.333)"/><path d="M11.76 0C11.76 6.49487 6.49487 11.76 4.673e-07 11.76-6.49487 11.76-11.76 6.49487-11.76 4.673e-07-11.76-6.49487-6.49487-11.76 5.06242e-07-11.76 6.49487-11.76 11.76-6.49487 11.76 0Z" transform="matrix(1.00348 0 0 1 440.585 294.667)"/><path d="M11.76 0C11.76 6.49487 6.49487 11.76 4.673e-07 11.76-6.49487 11.76-11.76 6.49487-11.76 4.673e-07-11.76-6.49487-6.49487-11.76 5.06242e-07-11.76 6.49487-11.76 11.76-6.49487 11.76 0Z" transform="matrix(1.00348 0 0 1 440.585 311)"/><path d="M11.76 0C11.76 6.49487 6.49487 11.76 4.673e-07 11.76-6.49487 11.76-11.76 6.49487-11.76 4.673e-07-11.76-6.49487-6.49487-11.76 5.06242e-07-11.76 6.49487-11.76 11.76-6.49487 11.76 0Z" transform="matrix(1.00348 0 0 1 440.585 327.333)"/><path d="M11.76 0C11.76 6.49487 6.49487 11.76 4.673e-07 11.76-6.49487 11.76-11.76 6.49487-11.76 4.673e-07-11.76-6.49487-6.49487-11.76 5.06242e-07-11.76 6.49487-11.76 11.76-6.49487 11.76 0Z" transform="matrix(1.00348 0 0 1 440.585 343.667)"/><path d="M11.76 0C11.76 6.49487 6.49487 11.76 4.673e-07 11.76-6.49487 11.76-11.76 6.49487-11.76 4.673e-07-11.76-6.49487-6.49487-11.76 5.06242e-07-11.76 6.49487-11.76 11.76-6.49487 11.76 0Z" transform="matrix(1.00348 0 0 1 440.585 360)"/><path d="M11.76 0C11.76 6.49487 6.49487 11.76 4.673e-07 11.76-6.49487 11.76-11.76 6.49487-11.76 4.673e-07-11.76-6.49487-6.49487-11.76 5.06242e-07-11.76 6.49487-11.76 11.76-6.49487 11.76 0Z" transform="matrix(1.00348 0 0 1 440.585 376.333)"/><path d="M11.76 0C11.76 6.49487 6.49487 11.76 4.673e-07 11.76-6.49487 11.76-11.76 6.49487-11.76 4.673e-07-11.76-6.49487-6.49487-11.76 5.06242e-07-11.76 6.49487-11.76 11.76-6.49487 11.76 0Z" transform="matrix(1.00348 0 0 1 440.585 392.667)"/><path d="M11.76 0C11.76 6.49487 6.49487 11.76 4.673e-07 11.76-6.49487 11.76-11.76 6.49487-11.76 4.673e-07-11.76-6.49487-6.49487-11.76 5.06242e-07-11.76 6.49487-11.76 11.76-6.49487 11.76 0Z" transform="matrix(1.00348 0 0 1 440.585 409)"/><path d="M11.76 0C11.76 6.49487 6.49487 11.76 4.673e-07 11.76-6.49487 11.76-11.76 6.49487-11.76 4.673e-07-11.76-6.49487-6.49487-11.76 5.06242e-07-11.76 6.49487-11.76 11.76-6.49487 11.76 0Z" transform="matrix(1.00348 0 0 1 440.585 425.333)"/><path d="M11.76 0C11.76 6.49487 6.49487 11.76 4.673e-07 11.76-6.49487 11.76-11.76 6.49487-11.76 4.673e-07-11.76-6.49487-6.49487-11.76 5.06242e-07-11.76 6.49487-11.76 11.76-6.49487 11.76 0Z" transform="matrix(1.00348 0 0 1 456.976 294.667)"/><path d="M11.76 0C11.76 6.49487 6.49487 11.76 4.673e-07 11.76-6.49487 11.76-11.76 6.49487-11.76 4.673e-07-11.76-6.49487-6.49487-11.76 5.06242e-07-11.76 6.49487-11.76 11.76-6.49487 11.76 0Z" transform="matrix(1.00348 0 0 1 456.976 311)"/><path d="M11.76 0C11.76 6.49487 6.49487 11.76 4.673e-07 11.76-6.49487 11.76-11.76 6.49487-11.76 4.673e-07-11.76-6.49487-6.49487-11.76 5.06242e-07-11.76 6.49487-11.76 11.76-6.49487 11.76 0Z" transform="matrix(1.00348 0 0 1 456.976 327.333)"/><path d="M11.76 0C11.76 6.49487 6.49487 11.76 4.673e-07 11.76-6.49487 11.76-11.76 6.49487-11.76 4.673e-07-11.76-6.49487-6.49487-11.76 5.06242e-07-11.76 6.49487-11.76 11.76-6.49487 11.76 0Z" transform="matrix(1.00348 0 0 1 456.976 343.667)"/><path d="M11.76 0C11.76 6.49487 6.49487 11.76 4.673e-07 11.76-6.49487 11.76-11.76 6.49487-11.76 4.673e-07-11.76-6.49487-6.49487-11.76 5.06242e-07-11.76 6.49487-11.76 11.76-6.49487 11.76 0Z" transform="matrix(1.00348 0 0 1 456.976 360)"/><path d="M11.76 0C11.76 6.49487 6.49487 11.76 4.673e-07 11.76-6.49487 11.76-11.76 6.49487-11.76 4.673e-07-11.76-6.49487-6.49487-11.76 5.06242e-07-11.76 6.49487-11.76 11.76-6.49487 11.76 0Z" transform="matrix(1.00348 0 0 1 456.976 376.333)"/><path d="M11.76 0C11.76 6.49487 6.49487 11.76 4.673e-07 11.76-6.49487 11.76-11.76 6.49487-11.76 4.673e-07-11.76-6.49487-6.49487-11.76 5.06242e-07-11.76 6.49487-11.76 11.76-6.49487 11.76 0Z" transform="matrix(1.00348 0 0 1 456.976 392.667)"/><path d="M11.76 0C11.76 6.49487 6.49487 11.76 4.673e-07 11.76-6.49487 11.76-11.76 6.49487-11.76 4.673e-07-11.76-6.49487-6.49487-11.76 5.06242e-07-11.76 6.49487-11.76 11.76-6.49487 11.76 0Z" transform="matrix(1.00348 0 0 1 456.976 409)"/><path d="M11.76 0C11.76 6.49487 6.49487 11.76 4.673e-07 11.76-6.49487 11.76-11.76 6.49487-11.76 4.673e-07-11.76-6.49487-6.49487-11.76 5.06242e-07-11.76 6.49487-11.76 11.76-6.49487 11.76 0Z" transform="matrix(1.00348 0 0 1 456.976 425.333)"/><path d="M11.76 0C11.76 6.49487 6.49487 11.76 4.673e-07 11.76-6.49487 11.76-11.76 6.49487-11.76 4.673e-07-11.76-6.49487-6.49487-11.76 5.06242e-07-11.76 6.49487-11.76 11.76-6.49487 11.76 0Z" transform="matrix(1.00348 0 0 1 473.366 311)"/><path d="M11.76 0C11.76 6.49487 6.49487 11.76 4.673e-07 11.76-6.49487 11.76-11.76 6.49487-11.76 4.673e-07-11.76-6.49487-6.49487-11.76 5.06242e-07-11.76 6.49487-11.76 11.76-6.49487 11.76 0Z" transform="matrix(1.00348 0 0 1 473.366 327.333)"/><path d="M11.76 0C11.76 6.49487 6.49487 11.76 4.673e-07 11.76-6.49487 11.76-11.76 6.49487-11.76 4.673e-07-11.76-6.49487-6.49487-11.76 5.06242e-07-11.76 6.49487-11.76 11.76-6.49487 11.76 0Z" transform="matrix(1.00348 0 0 1 473.366 343.667)"/><path d="M11.76 0C11.76 6.49487 6.49487 11.76 4.673e-07 11.76-6.49487 11.76-11.76 6.49487-11.76 4.673e-07-11.76-6.49487-6.49487-11.76 5.06242e-07-11.76 6.49487-11.76 11.76-6.49487 11.76 0Z" transform="matrix(1.00348 0 0 1 473.366 360)"/><path d="M11.76 0C11.76 6.49487 6.49487 11.76 4.673e-07 11.76-6.49487 11.76-11.76 6.49487-11.76 4.673e-07-11.76-6.49487-6.49487-11.76 5.06242e-07-11.76 6.49487-11.76 11.76-6.49487 11.76 0Z" transform="matrix(1.00348 0 0 1 473.366 376.333)"/><path d="M11.76 0C11.76 6.49487 6.49487 11.76 4.673e-07 11.76-6.49487 11.76-11.76 6.49487-11.76 4.673e-07-11.76-6.49487-6.49487-11.76 5.06242e-07-11.76 6.49487-11.76 11.76-6.49487 11.76 0Z" transform="matrix(1.00348 0 0 1 473.366 392.667)"/><path d="M11.76 0C11.76 6.49487 6.49487 11.76 4.673e-07 11.76-6.49487 11.76-11.76 6.49487-11.76 4.673e-07-11.76-6.49487-6.49487-11.76 5.06242e-07-11.76 6.49487-11.76 11.76-6.49487 11.76 0Z" transform="matrix(1.00348 0 0 1 473.366 409)"/><path d="M11.76 0C11.76 6.49487 6.49487 11.76 4.673e-07 11.76-6.49487 11.76-11.76 6.49487-11.76 4.673e-07-11.76-6.49487-6.49487-11.76 5.06242e-07-11.76 6.49487-11.76 11.76-6.49487 11.76 0Z" transform="matrix(1.00348 0 0 1 489.756 311)"/><path d="M11.76 0C11.76 6.49487 6.49487 11.76 4.673e-07 11.76-6.49487 11.76-11.76 6.49487-11.76 4.673e-07-11.76-6.49487-6.49487-11.76 5.06242e-07-11.76 6.49487-11.76 11.76-6.49487 11.76 0Z" transform="matrix(1.00348 0 0 1 489.756 327.333)"/><path d="M11.76 0C11.76 6.49487 6.49487 11.76 4.673e-07 11.76-6.49487 11.76-11.76 6.49487-11.76 4.673e-07-11.76-6.49487-6.49487-11.76 5.06242e-07-11.76 6.49487-11.76 11.76-6.49487 11.76 0Z" transform="matrix(1.00348 0 0 1 489.756 343.667)"/><path d="M11.76 0C11.76 6.49487 6.49487 11.76 4.673e-07 11.76-6.49487 11.76-11.76 6.49487-11.76 4.673e-07-11.76-6.49487-6.49487-11.76 5.06242e-07-11.76 6.49487-11.76 11.76-6.49487 11.76 0Z" transform="matrix(1.00348 0 0 1 489.756 360)"/><path d="M11.76 0C11.76 6.49487 6.49487 11.76 4.673e-07 11.76-6.49487 11.76-11.76 6.49487-11.76 4.673e-07-11.76-6.49487-6.49487-11.76 5.06242e-07-11.76 6.49487-11.76 11.76-6.49487 11.76 0Z" transform="matrix(1.00348 0 0 1 489.756 376.333)"/><path d="M11.76 0C11.76 6.49487 6.49487 11.76 4.673e-07 11.76-6.49487 11.76-11.76 6.49487-11.76 4.673e-07-11.76-6.49487-6.49487-11.76 5.06242e-07-11.76 6.49487-11.76 11.76-6.49487 11.76 0Z" transform="matrix(1.00348 0 0 1 489.756 392.667)"/><path d="M11.76 0C11.76 6.49487 6.49487 11.76 4.673e-07 11.76-6.49487 11.76-11.76 6.49487-11.76 4.673e-07-11.76-6.49487-6.49487-11.76 5.06242e-07-11.76 6.49487-11.76 11.76-6.49487 11.76 0Z" transform="matrix(1.00348 0 0 1 489.756 409)"/><path d="M11.76 0C11.76 6.49487 6.49487 11.76 4.673e-07 11.76-6.49487 11.76-11.76 6.49487-11.76 4.673e-07-11.76-6.49487-6.49487-11.76 5.06242e-07-11.76 6.49487-11.76 11.76-6.49487 11.76 0Z" transform="matrix(1.00348 0 0 1 489.756 425.333)"/><path d="M11.76 0C11.76 6.49487 6.49487 11.76 4.673e-07 11.76-6.49487 11.76-11.76 6.49487-11.76 4.673e-07-11.76-6.49487-6.49487-11.76 5.06242e-07-11.76 6.49487-11.76 11.76-6.49487 11.76 0Z" transform="matrix(1.00348 0 0 1 506.146 327.333)"/><path d="M11.76 0C11.76 6.49487 6.49487 11.76 4.673e-07 11.76-6.49487 11.76-11.76 6.49487-11.76 4.673e-07-11.76-6.49487-6.49487-11.76 5.06242e-07-11.76 6.49487-11.76 11.76-6.49487 11.76 0Z" transform="matrix(1.00348 0 0 1 506.146 343.667)"/><path d="M11.76 0C11.76 6.49487 6.49487 11.76 4.673e-07 11.76-6.49487 11.76-11.76 6.49487-11.76 4.673e-07-11.76-6.49487-6.49487-11.76 5.06242e-07-11.76 6.49487-11.76 11.76-6.49487 11.76 0Z" transform="matrix(1.00348 0 0 1 506.146 360)"/><path d="M11.76 0C11.76 6.49487 6.49487 11.76 4.673e-07 11.76-6.49487 11.76-11.76 6.49487-11.76 4.673e-07-11.76-6.49487-6.49487-11.76 5.06242e-07-11.76 6.49487-11.76 11.76-6.49487 11.76 0Z" transform="matrix(1.00348 0 0 1 506.146 376.333)"/><path d="M11.76 0C11.76 6.49487 6.49487 11.76 4.673e-07 11.76-6.49487 11.76-11.76 6.49487-11.76 4.673e-07-11.76-6.49487-6.49487-11.76 5.06242e-07-11.76 6.49487-11.76 11.76-6.49487 11.76 0Z" transform="matrix(1.00348 0 0 1 506.146 392.667)"/><path d="M11.76 0C11.76 6.49487 6.49487 11.76 4.673e-07 11.76-6.49487 11.76-11.76 6.49487-11.76 4.673e-07-11.76-6.49487-6.49487-11.76 5.06242e-07-11.76 6.49487-11.76 11.76-6.49487 11.76 0Z" transform="matrix(1.00348 0 0 1 506.146 409)"/><path d="M11.76 0C11.76 6.49487 6.49487 11.76 4.673e-07 11.76-6.49487 11.76-11.76 6.49487-11.76 4.673e-07-11.76-6.49487-6.49487-11.76 5.06242e-07-11.76 6.49487-11.76 11.76-6.49487 11.76 0Z" transform="matrix(1.00348 0 0 1 506.146 425.333)"/><path d="M11.76 0C11.76 6.49487 6.49487 11.76 4.673e-07 11.76-6.49487 11.76-11.76 6.49487-11.76 4.673e-07-11.76-6.49487-6.49487-11.76 5.06242e-07-11.76 6.49487-11.76 11.76-6.49487 11.76 0Z" transform="matrix(1.00348 0 0 1 522.537 311)"/><path d="M11.76 0C11.76 6.49487 6.49487 11.76 4.673e-07 11.76-6.49487 11.76-11.76 6.49487-11.76 4.673e-07-11.76-6.49487-6.49487-11.76 5.06242e-07-11.76 6.49487-11.76 11.76-6.49487 11.76 0Z" transform="matrix(1.00348 0 0 1 522.537 327.333)"/><path d="M11.76 0C11.76 6.49487 6.49487 11.76 4.673e-07 11.76-6.49487 11.76-11.76 6.49487-11.76 4.673e-07-11.76-6.49487-6.49487-11.76 5.06242e-07-11.76 6.49487-11.76 11.76-6.49487 11.76 0Z" transform="matrix(1.00348 0 0 1 522.537 343.667)"/><path d="M11.76 0C11.76 6.49487 6.49487 11.76 4.673e-07 11.76-6.49487 11.76-11.76 6.49487-11.76 4.673e-07-11.76-6.49487-6.49487-11.76 5.06242e-07-11.76 6.49487-11.76 11.76-6.49487 11.76 0Z" transform="matrix(1.00348 0 0 1 522.537 360)"/><path d="M11.76 0C11.76 6.49487 6.49487 11.76 4.673e-07 11.76-6.49487 11.76-11.76 6.49487-11.76 4.673e-07-11.76-6.49487-6.49487-11.76 5.06242e-07-11.76 6.49487-11.76 11.76-6.49487 11.76 0Z" transform="matrix(1.00348 0 0 1 522.537 376.333)"/><path d="M11.76 0C11.76 6.49487 6.49487 11.76 4.673e-07 11.76-6.49487 11.76-11.76 6.49487-11.76 4.673e-07-11.76-6.49487-6.49487-11.76 5.06242e-07-11.76 6.49487-11.76 11.76-6.49487 11.76 0Z" transform="matrix(1.00348 0 0 1 522.537 392.667)"/><path d="M11.76 0C11.76 6.49487 6.49487 11.76 4.673e-07 11.76-6.49487 11.76-11.76 6.49487-11.76 4.673e-07-11.76-6.49487-6.49487-11.76 5.06242e-07-11.76 6.49487-11.76 11.76-6.49487 11.76 0Z" transform="matrix(1.00348 0 0 1 522.537 409)"/><path d="M11.76 0C11.76 6.49487 6.49487 11.76 4.673e-07 11.76-6.49487 11.76-11.76 6.49487-11.76 4.673e-07-11.76-6.49487-6.49487-11.76 5.06242e-07-11.76 6.49487-11.76 11.76-6.49487 11.76 0Z" transform="matrix(1.00348 0 0 1 522.537 425.333)"/><path d="M11.76 0C11.76 6.49487 6.49487 11.76 4.673e-07 11.76-6.49487 11.76-11.76 6.49487-11.76 4.673e-07-11.76-6.49487-6.49487-11.76 5.06242e-07-11.76 6.49487-11.76 11.76-6.49487 11.76 0Z" transform="matrix(1.00348 0 0 1 538.927 311)"/><path d="M11.76 0C11.76 6.49487 6.49487 11.76 4.673e-07 11.76-6.49487 11.76-11.76 6.49487-11.76 4.673e-07-11.76-6.49487-6.49487-11.76 5.06242e-07-11.76 6.49487-11.76 11.76-6.49487 11.76 0Z" transform="matrix(1.00348 0 0 1 538.927 327.333)"/><path d="M11.76 0C11.76 6.49487 6.49487 11.76 4.673e-07 11.76-6.49487 11.76-11.76 6.49487-11.76 4.673e-07-11.76-6.49487-6.49487-11.76 5.06242e-07-11.76 6.49487-11.76 11.76-6.49487 11.76 0Z" transform="matrix(1.00348 0 0 1 538.927 343.667)"/><path d="M11.76 0C11.76 6.49487 6.49487 11.76 4.673e-07 11.76-6.49487 11.76-11.76 6.49487-11.76 4.673e-07-11.76-6.49487-6.49487-11.76 5.06242e-07-11.76 6.49487-11.76 11.76-6.49487 11.76 0Z" transform="matrix(1.00348 0 0 1 538.927 360)"/><path d="M11.76 0C11.76 6.49487 6.49487 11.76 4.673e-07 11.76-6.49487 11.76-11.76 6.49487-11.76 4.673e-07-11.76-6.49487-6.49487-11.76 5.06242e-07-11.76 6.49487-11.76 11.76-6.49487 11.76 0Z" transform="matrix(1.00348 0 0 1 538.927 376.333)"/><path d="M11.76 0C11.76 6.49487 6.49487 11.76 4.673e-07 11.76-6.49487 11.76-11.76 6.49487-11.76 4.673e-07-11.76-6.49487-6.49487-11.76 5.06242e-07-11.76 6.49487-11.76 11.76-6.49487 11.76 0Z" transform="matrix(1.00348 0 0 1 538.927 392.667)"/><path d="M11.76 0C11.76 6.49487 6.49487 11.76 4.673e-07 11.76-6.49487 11.76-11.76 6.49487-11.76 4.673e-07-11.76-6.49487-6.49487-11.76 5.06242e-07-11.76 6.49487-11.76 11.76-6.49487 11.76 0Z" transform="matrix(1.00348 0 0 1 538.927 409)"/><path d="M11.76 0C11.76 6.49487 6.49487 11.76 4.673e-07 11.76-6.49487 11.76-11.76 6.49487-11.76 4.673e-07-11.76-6.49487-6.49487-11.76 5.06242e-07-11.76 6.49487-11.76 11.76-6.49487 11.76 0Z" transform="matrix(1.00348 0 0 1 538.927 425.333)"/><path d="M11.76 0C11.76 6.49487 6.49487 11.76 4.673e-07 11.76-6.49487 11.76-11.76 6.49487-11.76 4.673e-07-11.76-6.49487-6.49487-11.76 5.06242e-07-11.76 6.49487-11.76 11.76-6.49487 11.76 0Z" transform="matrix(1.00348 0 0 1 555.317 311)"/><path d="M11.76 0C11.76 6.49487 6.49487 11.76 4.673e-07 11.76-6.49487 11.76-11.76 6.49487-11.76 4.673e-07-11.76-6.49487-6.49487-11.76 5.06242e-07-11.76 6.49487-11.76 11.76-6.49487 11.76 0Z" transform="matrix(1.00348 0 0 1 555.317 327.333)"/><path d="M11.76 0C11.76 6.49487 6.49487 11.76 4.673e-07 11.76-6.49487 11.76-11.76 6.49487-11.76 4.673e-07-11.76-6.49487-6.49487-11.76 5.06242e-07-11.76 6.49487-11.76 11.76-6.49487 11.76 0Z" transform="matrix(1.00348 0 0 1 555.317 343.667)"/><path d="M11.76 0C11.76 6.49487 6.49487 11.76 4.673e-07 11.76-6.49487 11.76-11.76 6.49487-11.76 4.673e-07-11.76-6.49487-6.49487-11.76 5.06242e-07-11.76 6.49487-11.76 11.76-6.49487 11.76 0Z" transform="matrix(1.00348 0 0 1 555.317 360)"/><path d="M11.76 0C11.76 6.49487 6.49487 11.76 4.673e-07 11.76-6.49487 11.76-11.76 6.49487-11.76 4.673e-07-11.76-6.49487-6.49487-11.76 5.06242e-07-11.76 6.49487-11.76 11.76-6.49487 11.76 0Z" transform="matrix(1.00348 0 0 1 555.317 376.333)"/><path d="M11.76 0C11.76 6.49487 6.49487 11.76 4.673e-07 11.76-6.49487 11.76-11.76 6.49487-11.76 4.673e-07-11.76-6.49487-6.49487-11.76 5.06242e-07-11.76 6.49487-11.76 11.76-6.49487 11.76 0Z" transform="matrix(1.00348 0 0 1 555.317 392.667)"/><path d="M11.76 0C11.76 6.49487 6.49487 11.76 4.673e-07 11.76-6.49487 11.76-11.76 6.49487-11.76 4.673e-07-11.76-6.49487-6.49487-11.76 5.06242e-07-11.76 6.49487-11.76 11.76-6.49487 11.76 0Z" transform="matrix(1.00348 0 0 1 555.317 409)"/><path d="M11.76 0C11.76 6.49487 6.49487 11.76 4.673e-07 11.76-6.49487 11.76-11.76 6.49487-11.76 4.673e-07-11.76-6.49487-6.49487-11.76 5.06242e-07-11.76 6.49487-11.76 11.76-6.49487 11.76 0Z" transform="matrix(1.00348 0 0 1 555.317 425.333)"/><path d="M11.76 0C11.76 6.49487 6.49487 11.76 4.673e-07 11.76-6.49487 11.76-11.76 6.49487-11.76 4.673e-07-11.76-6.49487-6.49487-11.76 5.06242e-07-11.76 6.49487-11.76 11.76-6.49487 11.76 0Z" transform="matrix(1.00348 0 0 1 571.707 311)"/><path d="M11.76 0C11.76 6.49487 6.49487 11.76 4.673e-07 11.76-6.49487 11.76-11.76 6.49487-11.76 4.673e-07-11.76-6.49487-6.49487-11.76 5.06242e-07-11.76 6.49487-11.76 11.76-6.49487 11.76 0Z" transform="matrix(1.00348 0 0 1 571.707 327.333)"/><path d="M11.76 0C11.76 6.49487 6.49487 11.76 4.673e-07 11.76-6.49487 11.76-11.76 6.49487-11.76 4.673e-07-11.76-6.49487-6.49487-11.76 5.06242e-07-11.76 6.49487-11.76 11.76-6.49487 11.76 0Z" transform="matrix(1.00348 0 0 1 571.707 343.667)"/><path d="M11.76 0C11.76 6.49487 6.49487 11.76 4.673e-07 11.76-6.49487 11.76-11.76 6.49487-11.76 4.673e-07-11.76-6.49487-6.49487-11.76 5.06242e-07-11.76 6.49487-11.76 11.76-6.49487 11.76 0Z" transform="matrix(1.00348 0 0 1 571.707 360)"/><path d="M11.76 0C11.76 6.49487 6.49487 11.76 4.673e-07 11.76-6.49487 11.76-11.76 6.49487-11.76 4.673e-07-11.76-6.49487-6.49487-11.76 5.06242e-07-11.76 6.49487-11.76 11.76-6.49487 11.76 0Z" transform="matrix(1.00348 0 0 1 571.707 376.333)"/><path d="M11.76 0C11.76 6.49487 6.49487 11.76 4.673e-07 11.76-6.49487 11.76-11.76 6.49487-11.76 4.673e-07-11.76-6.49487-6.49487-11.76 5.06242e-07-11.76 6.49487-11.76 11.76-6.49487 11.76 0Z" transform="matrix(1.00348 0 0 1 571.707 392.667)"/><path d="M11.76 0C11.76 6.49487 6.49487 11.76 4.673e-07 11.76-6.49487 11.76-11.76 6.49487-11.76 4.673e-07-11.76-6.49487-6.49487-11.76 5.06242e-07-11.76 6.49487-11.76 11.76-6.49487 11.76 0Z" transform="matrix(1.00348 0 0 1 571.707 409)"/><path d="M11.76 0C11.76 6.49487 6.49487 11.76 4.673e-07 11.76-6.49487 11.76-11.76 6.49487-11.76 4.673e-07-11.76-6.49487-6.49487-11.76 5.06242e-07-11.76 6.49487-11.76 11.76-6.49487 11.76 0Z" transform="matrix(1.00348 0 0 1 571.707 425.333)"/><path d="M11.76 0C11.76 6.49487 6.49487 11.76 4.673e-07 11.76-6.49487 11.76-11.76 6.49487-11.76 4.673e-07-11.76-6.49487-6.49487-11.76 5.06242e-07-11.76 6.49487-11.76 11.76-6.49487 11.76 0Z" transform="matrix(1.00348 0 0 1 588.098 311)"/><path d="M11.76 0C11.76 6.49487 6.49487 11.76 4.673e-07 11.76-6.49487 11.76-11.76 6.49487-11.76 4.673e-07-11.76-6.49487-6.49487-11.76 5.06242e-07-11.76 6.49487-11.76 11.76-6.49487 11.76 0Z" transform="matrix(1.00348 0 0 1 588.098 327.333)"/><path d="M11.76 0C11.76 6.49487 6.49487 11.76 4.673e-07 11.76-6.49487 11.76-11.76 6.49487-11.76 4.673e-07-11.76-6.49487-6.49487-11.76 5.06242e-07-11.76 6.49487-11.76 11.76-6.49487 11.76 0Z" transform="matrix(1.00348 0 0 1 588.098 343.667)"/><path d="M11.76 0C11.76 6.49487 6.49487 11.76 4.673e-07 11.76-6.49487 11.76-11.76 6.49487-11.76 4.673e-07-11.76-6.49487-6.49487-11.76 5.06242e-07-11.76 6.49487-11.76 11.76-6.49487 11.76 0Z" transform="matrix(1.00348 0 0 1 588.098 360)"/><path d="M11.76 0C11.76 6.49487 6.49487 11.76 4.673e-07 11.76-6.49487 11.76-11.76 6.49487-11.76 4.673e-07-11.76-6.49487-6.49487-11.76 5.06242e-07-11.76 6.49487-11.76 11.76-6.49487 11.76 0Z" transform="matrix(1.00348 0 0 1 588.098 376.333)"/><path d="M11.76 0C11.76 6.49487 6.49487 11.76 4.673e-07 11.76-6.49487 11.76-11.76 6.49487-11.76 4.673e-07-11.76-6.49487-6.49487-11.76 5.06242e-07-11.76 6.49487-11.76 11.76-6.49487 11.76 0Z" transform="matrix(1.00348 0 0 1 588.098 392.667)"/><path d="M11.76 0C11.76 6.49487 6.49487 11.76 4.673e-07 11.76-6.49487 11.76-11.76 6.49487-11.76 4.673e-07-11.76-6.49487-6.49487-11.76 5.06242e-07-11.76 6.49487-11.76 11.76-6.49487 11.76 0Z" transform="matrix(1.00348 0 0 1 588.098 409)"/><path d="M11.76 0C11.76 6.49487 6.49487 11.76 4.673e-07 11.76-6.49487 11.76-11.76 6.49487-11.76 4.673e-07-11.76-6.49487-6.49487-11.76 5.06242e-07-11.76 6.49487-11.76 11.76-6.49487 11.76 0Z" transform="matrix(1.00348 0 0 1 588.098 425.333)"/><path d="M11.76 0C11.76 6.49487 6.49487 11.76 4.673e-07 11.76-6.49487 11.76-11.76 6.49487-11.76 4.673e-07-11.76-6.49487-6.49487-11.76 5.06242e-07-11.76 6.49487-11.76 11.76-6.49487 11.76 0Z" transform="matrix(1.00348 0 0 1 604.488 311)"/><path d="M11.76 0C11.76 6.49487 6.49487 11.76 4.673e-07 11.76-6.49487 11.76-11.76 6.49487-11.76 4.673e-07-11.76-6.49487-6.49487-11.76 5.06242e-07-11.76 6.49487-11.76 11.76-6.49487 11.76 0Z" transform="matrix(1.00348 0 0 1 604.488 327.333)"/><path d="M11.76 0C11.76 6.49487 6.49487 11.76 4.673e-07 11.76-6.49487 11.76-11.76 6.49487-11.76 4.673e-07-11.76-6.49487-6.49487-11.76 5.06242e-07-11.76 6.49487-11.76 11.76-6.49487 11.76 0Z" transform="matrix(1.00348 0 0 1 604.488 343.667)"/><path d="M11.76 0C11.76 6.49487 6.49487 11.76 4.673e-07 11.76-6.49487 11.76-11.76 6.49487-11.76 4.673e-07-11.76-6.49487-6.49487-11.76 5.06242e-07-11.76 6.49487-11.76 11.76-6.49487 11.76 0Z" transform="matrix(1.00348 0 0 1 604.488 360)"/><path d="M11.76 0C11.76 6.49487 6.49487 11.76 4.673e-07 11.76-6.49487 11.76-11.76 6.49487-11.76 4.673e-07-11.76-6.49487-6.49487-11.76 5.06242e-07-11.76 6.49487-11.76 11.76-6.49487 11.76 0Z" transform="matrix(1.00348 0 0 1 604.488 376.333)"/><path d="M11.76 0C11.76 6.49487 6.49487 11.76 4.673e-07 11.76-6.49487 11.76-11.76 6.49487-11.76 4.673e-07-11.76-6.49487-6.49487-11.76 5.06242e-07-11.76 6.49487-11.76 11.76-6.49487 11.76 0Z" transform="matrix(1.00348 0 0 1 604.488 392.667)"/><path d="M11.76 0C11.76 6.49487 6.49487 11.76 4.673e-07 11.76-6.49487 11.76-11.76 6.49487-11.76 4.673e-07-11.76-6.49487-6.49487-11.76 5.06242e-07-11.76 6.49487-11.76 11.76-6.49487 11.76 0Z" transform="matrix(1.00348 0 0 1 604.488 409)"/><path d="M11.76 0C11.76 6.49487 6.49487 11.76 4.673e-07 11.76-6.49487 11.76-11.76 6.49487-11.76 4.673e-07-11.76-6.49487-6.49487-11.76 5.06242e-07-11.76 6.49487-11.76 11.76-6.49487 11.76 0Z" transform="matrix(1.00348 0 0 1 604.488 425.333)"/><path d="M11.76 0C11.76 6.49487 6.49487 11.76 4.673e-07 11.76-6.49487 11.76-11.76 6.49487-11.76 4.673e-07-11.76-6.49487-6.49487-11.76 5.06242e-07-11.76 6.49487-11.76 11.76-6.49487 11.76 0Z" transform="matrix(1.00348 0 0 1 620.878 311)"/><path d="M11.76 0C11.76 6.49487 6.49487 11.76 4.673e-07 11.76-6.49487 11.76-11.76 6.49487-11.76 4.673e-07-11.76-6.49487-6.49487-11.76 5.06242e-07-11.76 6.49487-11.76 11.76-6.49487 11.76 0Z" transform="matrix(1.00348 0 0 1 620.878 327.333)"/><path d="M11.76 0C11.76 6.49487 6.49487 11.76 4.673e-07 11.76-6.49487 11.76-11.76 6.49487-11.76 4.673e-07-11.76-6.49487-6.49487-11.76 5.06242e-07-11.76 6.49487-11.76 11.76-6.49487 11.76 0Z" transform="matrix(1.00348 0 0 1 620.878 343.667)"/><path d="M11.76 0C11.76 6.49487 6.49487 11.76 4.673e-07 11.76-6.49487 11.76-11.76 6.49487-11.76 4.673e-07-11.76-6.49487-6.49487-11.76 5.06242e-07-11.76 6.49487-11.76 11.76-6.49487 11.76 0Z" transform="matrix(1.00348 0 0 1 620.878 360)"/><path d="M11.76 0C11.76 6.49487 6.49487 11.76 4.673e-07 11.76-6.49487 11.76-11.76 6.49487-11.76 4.673e-07-11.76-6.49487-6.49487-11.76 5.06242e-07-11.76 6.49487-11.76 11.76-6.49487 11.76 0Z" transform="matrix(1.00348 0 0 1 620.878 376.333)"/><path d="M11.76 0C11.76 6.49487 6.49487 11.76 4.673e-07 11.76-6.49487 11.76-11.76 6.49487-11.76 4.673e-07-11.76-6.49487-6.49487-11.76 5.06242e-07-11.76 6.49487-11.76 11.76-6.49487 11.76 0Z" transform="matrix(1.00348 0 0 1 620.878 392.667)"/><path d="M11.76 0C11.76 6.49487 6.49487 11.76 4.673e-07 11.76-6.49487 11.76-11.76 6.49487-11.76 4.673e-07-11.76-6.49487-6.49487-11.76 5.06242e-07-11.76 6.49487-11.76 11.76-6.49487 11.76 0Z" transform="matrix(1.00348 0 0 1 620.878 409)"/><path d="M11.76 0C11.76 6.49487 6.49487 11.76 4.673e-07 11.76-6.49487 11.76-11.76 6.49487-11.76 4.673e-07-11.76-6.49487-6.49487-11.76 5.06242e-07-11.76 6.49487-11.76 11.76-6.49487 11.76 0Z" transform="matrix(1.00348 0 0 1 620.878 425.333)"/><path d="M11.76 0C11.76 6.49487 6.49487 11.76 4.673e-07 11.76-6.49487 11.76-11.76 6.49487-11.76 4.673e-07-11.76-6.49487-6.49487-11.76 5.06242e-07-11.76 6.49487-11.76 11.76-6.49487 11.76 0Z" transform="matrix(1.00348 0 0 1 637.268 311)"/><path d="M11.76 0C11.76 6.49487 6.49487 11.76 4.673e-07 11.76-6.49487 11.76-11.76 6.49487-11.76 4.673e-07-11.76-6.49487-6.49487-11.76 5.06242e-07-11.76 6.49487-11.76 11.76-6.49487 11.76 0Z" transform="matrix(1.00348 0 0 1 637.268 327.333)"/><path d="M11.76 0C11.76 6.49487 6.49487 11.76 4.673e-07 11.76-6.49487 11.76-11.76 6.49487-11.76 4.673e-07-11.76-6.49487-6.49487-11.76 5.06242e-07-11.76 6.49487-11.76 11.76-6.49487 11.76 0Z" transform="matrix(1.00348 0 0 1 637.268 343.667)"/><path d="M11.76 0C11.76 6.49487 6.49487 11.76 4.673e-07 11.76-6.49487 11.76-11.76 6.49487-11.76 4.673e-07-11.76-6.49487-6.49487-11.76 5.06242e-07-11.76 6.49487-11.76 11.76-6.49487 11.76 0Z" transform="matrix(1.00348 0 0 1 637.268 360)"/><path d="M11.76 0C11.76 6.49487 6.49487 11.76 4.673e-07 11.76-6.49487 11.76-11.76 6.49487-11.76 4.673e-07-11.76-6.49487-6.49487-11.76 5.06242e-07-11.76 6.49487-11.76 11.76-6.49487 11.76 0Z" transform="matrix(1.00348 0 0 1 637.268 376.333)"/><path d="M11.76 0C11.76 6.49487 6.49487 11.76 4.673e-07 11.76-6.49487 11.76-11.76 6.49487-11.76 4.673e-07-11.76-6.49487-6.49487-11.76 5.06242e-07-11.76 6.49487-11.76 11.76-6.49487 11.76 0Z" transform="matrix(1.00348 0 0 1 637.268 392.667)"/><path d="M11.76 0C11.76 6.49487 6.49487 11.76 4.673e-07 11.76-6.49487 11.76-11.76 6.49487-11.76 4.673e-07-11.76-6.49487-6.49487-11.76 5.06242e-07-11.76 6.49487-11.76 11.76-6.49487 11.76 0Z" transform="matrix(1.00348 0 0 1 637.268 409)"/><path d="M11.76 0C11.76 6.49487 6.49487 11.76 4.673e-07 11.76-6.49487 11.76-11.76 6.49487-11.76 4.673e-07-11.76-6.49487-6.49487-11.76 5.06242e-07-11.76 6.49487-11.76 11.76-6.49487 11.76 0Z" transform="matrix(1.00348 0 0 1 637.268 425.333)"/><path d="M11.76 0C11.76 6.49487 6.49487 11.76 4.673e-07 11.76-6.49487 11.76-11.76 6.49487-11.76 4.673e-07-11.76-6.49487-6.49487-11.76 5.06242e-07-11.76 6.49487-11.76 11.76-6.49487 11.76 0Z" transform="matrix(1.00348 0 0 1 653.659 311)"/><path d="M11.76 0C11.76 6.49487 6.49487 11.76 4.673e-07 11.76-6.49487 11.76-11.76 6.49487-11.76 4.673e-07-11.76-6.49487-6.49487-11.76 5.06242e-07-11.76 6.49487-11.76 11.76-6.49487 11.76 0Z" transform="matrix(1.00348 0 0 1 653.659 327.333)"/><path d="M11.76 0C11.76 6.49487 6.49487 11.76 4.673e-07 11.76-6.49487 11.76-11.76 6.49487-11.76 4.673e-07-11.76-6.49487-6.49487-11.76 5.06242e-07-11.76 6.49487-11.76 11.76-6.49487 11.76 0Z" transform="matrix(1.00348 0 0 1 653.659 343.667)"/><path d="M11.76 0C11.76 6.49487 6.49487 11.76 4.673e-07 11.76-6.49487 11.76-11.76 6.49487-11.76 4.673e-07-11.76-6.49487-6.49487-11.76 5.06242e-07-11.76 6.49487-11.76 11.76-6.49487 11.76 0Z" transform="matrix(1.00348 0 0 1 653.659 360)"/><path d="M11.76 0C11.76 6.49487 6.49487 11.76 4.673e-07 11.76-6.49487 11.76-11.76 6.49487-11.76 4.673e-07-11.76-6.49487-6.49487-11.76 5.06242e-07-11.76 6.49487-11.76 11.76-6.49487 11.76 0Z" transform="matrix(1.00348 0 0 1 653.659 376.333)"/><path d="M11.76 0C11.76 6.49487 6.49487 11.76 4.673e-07 11.76-6.49487 11.76-11.76 6.49487-11.76 4.673e-07-11.76-6.49487-6.49487-11.76 5.06242e-07-11.76 6.49487-11.76 11.76-6.49487 11.76 0Z" transform="matrix(1.00348 0 0 1 653.659 392.667)"/><path d="M11.76 0C11.76 6.49487 6.49487 11.76 4.673e-07 11.76-6.49487 11.76-11.76 6.49487-11.76 4.673e-07-11.76-6.49487-6.49487-11.76 5.06242e-07-11.76 6.49487-11.76 11.76-6.49487 11.76 0Z" transform="matrix(1.00348 0 0 1 653.659 409)"/><path d="M11.76 0C11.76 6.49487 6.49487 11.76 4.673e-07 11.76-6.49487 11.76-11.76 6.49487-11.76 4.673e-07-11.76-6.49487-6.49487-11.76 5.06242e-07-11.76 6.49487-11.76 11.76-6.49487 11.76 0Z" transform="matrix(1.00348 0 0 1 653.659 425.333)"/><path d="M11.76 0C11.76 6.49487 6.49487 11.76 4.673e-07 11.76-6.49487 11.76-11.76 6.49487-11.76 4.673e-07-11.76-6.49487-6.49487-11.76 5.06242e-07-11.76 6.49487-11.76 11.76-6.49487 11.76 0Z" transform="matrix(1.00348 0 0 1 670.049 311)"/><path d="M11.76 0C11.76 6.49487 6.49487 11.76 4.673e-07 11.76-6.49487 11.76-11.76 6.49487-11.76 4.673e-07-11.76-6.49487-6.49487-11.76 5.06242e-07-11.76 6.49487-11.76 11.76-6.49487 11.76 0Z" transform="matrix(1.00348 0 0 1 670.049 327.333)"/><path d="M11.76 0C11.76 6.49487 6.49487 11.76 4.673e-07 11.76-6.49487 11.76-11.76 6.49487-11.76 4.673e-07-11.76-6.49487-6.49487-11.76 5.06242e-07-11.76 6.49487-11.76 11.76-6.49487 11.76 0Z" transform="matrix(1.00348 0 0 1 670.049 343.667)"/><path d="M11.76 0C11.76 6.49487 6.49487 11.76 4.673e-07 11.76-6.49487 11.76-11.76 6.49487-11.76 4.673e-07-11.76-6.49487-6.49487-11.76 5.06242e-07-11.76 6.49487-11.76 11.76-6.49487 11.76 0Z" transform="matrix(1.00348 0 0 1 670.049 360)"/><path d="M11.76 0C11.76 6.49487 6.49487 11.76 4.673e-07 11.76-6.49487 11.76-11.76 6.49487-11.76 4.673e-07-11.76-6.49487-6.49487-11.76 5.06242e-07-11.76 6.49487-11.76 11.76-6.49487 11.76 0Z" transform="matrix(1.00348 0 0 1 670.049 376.333)"/><path d="M11.76 0C11.76 6.49487 6.49487 11.76 4.673e-07 11.76-6.49487 11.76-11.76 6.49487-11.76 4.673e-07-11.76-6.49487-6.49487-11.76 5.06242e-07-11.76 6.49487-11.76 11.76-6.49487 11.76 0Z" transform="matrix(1.00348 0 0 1 670.049 392.667)"/><path d="M11.76 0C11.76 6.49487 6.49487 11.76 4.673e-07 11.76-6.49487 11.76-11.76 6.49487-11.76 4.673e-07-11.76-6.49487-6.49487-11.76 5.06242e-07-11.76 6.49487-11.76 11.76-6.49487 11.76 0Z" transform="matrix(1.00348 0 0 1 670.049 409)"/><path d="M11.76 0C11.76 6.49487 6.49487 11.76 4.673e-07 11.76-6.49487 11.76-11.76 6.49487-11.76 4.673e-07-11.76-6.49487-6.49487-11.76 5.06242e-07-11.76 6.49487-11.76 11.76-6.49487 11.76 0Z" transform="matrix(1.00348 0 0 1 686.439 311)"/><path d="M11.76 0C11.76 6.49487 6.49487 11.76 4.673e-07 11.76-6.49487 11.76-11.76 6.49487-11.76 4.673e-07-11.76-6.49487-6.49487-11.76 5.06242e-07-11.76 6.49487-11.76 11.76-6.49487 11.76 0Z" transform="matrix(1.00348 0 0 1 686.439 327.333)"/><path d="M11.76 0C11.76 6.49487 6.49487 11.76 4.673e-07 11.76-6.49487 11.76-11.76 6.49487-11.76 4.673e-07-11.76-6.49487-6.49487-11.76 5.06242e-07-11.76 6.49487-11.76 11.76-6.49487 11.76 0Z" transform="matrix(1.00348 0 0 1 686.439 343.667)"/><path d="M11.76 0C11.76 6.49487 6.49487 11.76 4.673e-07 11.76-6.49487 11.76-11.76 6.49487-11.76 4.673e-07-11.76-6.49487-6.49487-11.76 5.06242e-07-11.76 6.49487-11.76 11.76-6.49487 11.76 0Z" transform="matrix(1.00348 0 0 1 686.439 360)"/><path d="M11.76 0C11.76 6.49487 6.49487 11.76 4.673e-07 11.76-6.49487 11.76-11.76 6.49487-11.76 4.673e-07-11.76-6.49487-6.49487-11.76 5.06242e-07-11.76 6.49487-11.76 11.76-6.49487 11.76 0Z" transform="matrix(1.00348 0 0 1 686.439 376.333)"/><path d="M11.76 0C11.76 6.49487 6.49487 11.76 4.673e-07 11.76-6.49487 11.76-11.76 6.49487-11.76 4.673e-07-11.76-6.49487-6.49487-11.76 5.06242e-07-11.76 6.49487-11.76 11.76-6.49487 11.76 0Z" transform="matrix(1.00348 0 0 1 686.439 392.667)"/><path d="M11.76 0C11.76 6.49487 6.49487 11.76 4.673e-07 11.76-6.49487 11.76-11.76 6.49487-11.76 4.673e-07-11.76-6.49487-6.49487-11.76 5.06242e-07-11.76 6.49487-11.76 11.76-6.49487 11.76 0Z" transform="matrix(1.00348 0 0 1 686.439 409)"/><path d="M11.76 0C11.76 6.49487 6.49487 11.76 4.673e-07 11.76-6.49487 11.76-11.76 6.49487-11.76 4.673e-07-11.76-6.49487-6.49487-11.76 5.06242e-07-11.76 6.49487-11.76 11.76-6.49487 11.76 0Z" transform="matrix(1.00348 0 0 1 686.439 425.333)"/><path d="M11.76 0C11.76 6.49487 6.49487 11.76 4.673e-07 11.76-6.49487 11.76-11.76 6.49487-11.76 4.673e-07-11.76-6.49487-6.49487-11.76 5.06242e-07-11.76 6.49487-11.76 11.76-6.49487 11.76 0Z" transform="matrix(1.00348 0 0 1 702.829 327.333)"/><path d="M11.76 0C11.76 6.49487 6.49487 11.76 4.673e-07 11.76-6.49487 11.76-11.76 6.49487-11.76 4.673e-07-11.76-6.49487-6.49487-11.76 5.06242e-07-11.76 6.49487-11.76 11.76-6.49487 11.76 0Z" transform="matrix(1.00348 0 0 1 702.829 343.667)"/><path d="M11.76 0C11.76 6.49487 6.49487 11.76 4.673e-07 11.76-6.49487 11.76-11.76 6.49487-11.76 4.673e-07-11.76-6.49487-6.49487-11.76 5.06242e-07-11.76 6.49487-11.76 11.76-6.49487 11.76 0Z" transform="matrix(1.00348 0 0 1 702.829 360)"/><path d="M11.76 0C11.76 6.49487 6.49487 11.76 4.673e-07 11.76-6.49487 11.76-11.76 6.49487-11.76 4.673e-07-11.76-6.49487-6.49487-11.76 5.06242e-07-11.76 6.49487-11.76 11.76-6.49487 11.76 0Z" transform="matrix(1.00348 0 0 1 702.829 376.333)"/><path d="M11.76 0C11.76 6.49487 6.49487 11.76 4.673e-07 11.76-6.49487 11.76-11.76 6.49487-11.76 4.673e-07-11.76-6.49487-6.49487-11.76 5.06242e-07-11.76 6.49487-11.76 11.76-6.49487 11.76 0Z" transform="matrix(1.00348 0 0 1 702.829 392.667)"/><path d="M11.76 0C11.76 6.49487 6.49487 11.76 4.673e-07 11.76-6.49487 11.76-11.76 6.49487-11.76 4.673e-07-11.76-6.49487-6.49487-11.76 5.06242e-07-11.76 6.49487-11.76 11.76-6.49487 11.76 0Z" transform="matrix(1.00348 0 0 1 702.829 409)"/><path d="M11.76 0C11.76 6.49487 6.49487 11.76 4.673e-07 11.76-6.49487 11.76-11.76 6.49487-11.76 4.673e-07-11.76-6.49487-6.49487-11.76 5.06242e-07-11.76 6.49487-11.76 11.76-6.49487 11.76 0Z" transform="matrix(1.00348 0 0 1 702.829 425.333)"/><path d="M11.76 0C11.76 6.49487 6.49487 11.76 4.673e-07 11.76-6.49487 11.76-11.76 6.49487-11.76 4.673e-07-11.76-6.49487-6.49487-11.76 5.06242e-07-11.76 6.49487-11.76 11.76-6.49487 11.76 0Z" transform="matrix(1.00348 0 0 1 719.219 343.667)"/><path d="M11.76 0C11.76 6.49487 6.49487 11.76 4.673e-07 11.76-6.49487 11.76-11.76 6.49487-11.76 4.673e-07-11.76-6.49487-6.49487-11.76 5.06242e-07-11.76 6.49487-11.76 11.76-6.49487 11.76 0Z" transform="matrix(1.00348 0 0 1 719.219 360)"/><path d="M11.76 0C11.76 6.49487 6.49487 11.76 4.673e-07 11.76-6.49487 11.76-11.76 6.49487-11.76 4.673e-07-11.76-6.49487-6.49487-11.76 5.06242e-07-11.76 6.49487-11.76 11.76-6.49487 11.76 0Z" transform="matrix(1.00348 0 0 1 719.219 376.333)"/><path d="M11.76 0C11.76 6.49487 6.49487 11.76 4.673e-07 11.76-6.49487 11.76-11.76 6.49487-11.76 4.673e-07-11.76-6.49487-6.49487-11.76 5.06242e-07-11.76 6.49487-11.76 11.76-6.49487 11.76 0Z" transform="matrix(1.00348 0 0 1 719.219 392.667)"/><path d="M11.76 0C11.76 6.49487 6.49487 11.76 4.673e-07 11.76-6.49487 11.76-11.76 6.49487-11.76 4.673e-07-11.76-6.49487-6.49487-11.76 5.06242e-07-11.76 6.49487-11.76 11.76-6.49487 11.76 0Z" transform="matrix(1.00348 0 0 1 719.219 409)"/><path d="M11.76 0C11.76 6.49487 6.49487 11.76 4.673e-07 11.76-6.49487 11.76-11.76 6.49487-11.76 4.673e-07-11.76-6.49487-6.49487-11.76 5.06242e-07-11.76 6.49487-11.76 11.76-6.49487 11.76 0Z" transform="matrix(1.00348 0 0 1 719.219 425.333)"/><path d="M11.76 0C11.76 6.49487 6.49487 11.76 4.673e-07 11.76-6.49487 11.76-11.76 6.49487-11.76 4.673e-07-11.76-6.49487-6.49487-11.76 5.06242e-07-11.76 6.49487-11.76 11.76-6.49487 11.76 0Z" fill="#FFFFFF" transform="matrix(1.00348 0 0 1 129.171 327.333)"/><path d="M11.76 0C11.76 6.49487 6.49487 11.76 4.673e-07 11.76-6.49487 11.76-11.76 6.49487-11.76 4.673e-07-11.76-6.49487-6.49487-11.76 5.06242e-07-11.76 6.49487-11.76 11.76-6.49487 11.76 0Z" fill="#FFFFFF" transform="matrix(1.00348 0 0 1 129.171 343.667)"/><path d="M11.76 0C11.76 6.49487 6.49487 11.76 4.673e-07 11.76-6.49487 11.76-11.76 6.49487-11.76 4.673e-07-11.76-6.49487-6.49487-11.76 5.06242e-07-11.76 6.49487-11.76 11.76-6.49487 11.76 0Z" fill="#FFFFFF" transform="matrix(1.00348 0 0 1 129.171 360)"/><path d="M11.76 0C11.76 6.49487 6.49487 11.76 4.673e-07 11.76-6.49487 11.76-11.76 6.49487-11.76 4.673e-07-11.76-6.49487-6.49487-11.76 5.06242e-07-11.76 6.49487-11.76 11.76-6.49487 11.76 0Z" fill="#FFFFFF" transform="matrix(1.00348 0 0 1 129.171 376.333)"/><path d="M11.76 0C11.76 6.49487 6.49487 11.76 4.673e-07 11.76-6.49487 11.76-11.76 6.49487-11.76 4.673e-07-11.76-6.49487-6.49487-11.76 5.06242e-07-11.76 6.49487-11.76 11.76-6.49487 11.76 0Z" fill="#FFFFFF" transform="matrix(1.00348 0 0 1 129.171 392.667)"/><path d="M11.76 0C11.76 6.49487 6.49487 11.76 4.673e-07 11.76-6.49487 11.76-11.76 6.49487-11.76 4.673e-07-11.76-6.49487-6.49487-11.76 5.06242e-07-11.76 6.49487-11.76 11.76-6.49487 11.76 0Z" fill="#FFFFFF" transform="matrix(1.00348 0 0 1 145.561 327.333)"/><path d="M11.76 0C11.76 6.49487 6.49487 11.76 4.673e-07 11.76-6.49487 11.76-11.76 6.49487-11.76 4.673e-07-11.76-6.49487-6.49487-11.76 5.06242e-07-11.76 6.49487-11.76 11.76-6.49487 11.76 0Z" fill="#FFFFFF" transform="matrix(1.00348 0 0 1 145.561 360)"/><path d="M11.76 0C11.76 6.49487 6.49487 11.76 4.673e-07 11.76-6.49487 11.76-11.76 6.49487-11.76 4.673e-07-11.76-6.49487-6.49487-11.76 5.06242e-07-11.76 6.49487-11.76 11.76-6.49487 11.76 0Z" fill="#FFFFFF" transform="matrix(1.00348 0 0 1 161.951 327.333)"/><path d="M11.76 0C11.76 6.49487 6.49487 11.76 4.673e-07 11.76-6.49487 11.76-11.76 6.49487-11.76 4.673e-07-11.76-6.49487-6.49487-11.76 5.06242e-07-11.76 6.49487-11.76 11.76-6.49487 11.76 0Z" fill="#FFFFFF" transform="matrix(1.00348 0 0 1 161.951 360)"/><path d="M11.76 0C11.76 6.49487 6.49487 11.76 4.673e-07 11.76-6.49487 11.76-11.76 6.49487-11.76 4.673e-07-11.76-6.49487-6.49487-11.76 5.06242e-07-11.76 6.49487-11.76 11.76-6.49487 11.76 0Z" fill="#FFFFFF" transform="matrix(1.00348 0 0 1 178.341 327.333)"/><path d="M11.76 0C11.76 6.49487 6.49487 11.76 4.673e-07 11.76-6.49487 11.76-11.76 6.49487-11.76 4.673e-07-11.76-6.49487-6.49487-11.76 5.06242e-07-11.76 6.49487-11.76 11.76-6.49487 11.76 0Z" fill="#FFFFFF" transform="matrix(1.00348 0 0 1 178.341 360)"/><path d="M11.76 0C11.76 6.49487 6.49487 11.76 4.673e-07 11.76-6.49487 11.76-11.76 6.49487-11.76 4.673e-07-11.76-6.49487-6.49487-11.76 5.06242e-07-11.76 6.49487-11.76 11.76-6.49487 11.76 0Z" fill="#FFFFFF" transform="matrix(1.00348 0 0 1 194.732 343.667)"/><path d="M11.76 0C11.76 6.49487 6.49487 11.76 4.673e-07 11.76-6.49487 11.76-11.76 6.49487-11.76 4.673e-07-11.76-6.49487-6.49487-11.76 5.06242e-07-11.76 6.49487-11.76 11.76-6.49487 11.76 0Z" fill="#FFFFFF" transform="matrix(1.00348 0 0 1 227.512 327.333)"/><path d="M11.76 0C11.76 6.49487 6.49487 11.76 4.673e-07 11.76-6.49487 11.76-11.76 6.49487-11.76 4.673e-07-11.76-6.49487-6.49487-11.76 5.06242e-07-11.76 6.49487-11.76 11.76-6.49487 11.76 0Z" fill="#FFFFFF" transform="matrix(1.00348 0 0 1 227.512 343.667)"/><path d="M11.76 0C11.76 6.49487 6.49487 11.76 4.673e-07 11.76-6.49487 11.76-11.76 6.49487-11.76 4.673e-07-11.76-6.49487-6.49487-11.76 5.06242e-07-11.76 6.49487-11.76 11.76-6.49487 11.76 0Z" fill="#FFFFFF" transform="matrix(1.00348 0 0 1 243.902 360)"/><path d="M11.76 0C11.76 6.49487 6.49487 11.76 4.673e-07 11.76-6.49487 11.76-11.76 6.49487-11.76 4.673e-07-11.76-6.49487-6.49487-11.76 5.06242e-07-11.76 6.49487-11.76 11.76-6.49487 11.76 0Z" fill="#FFFFFF" transform="matrix(1.00348 0 0 1 243.902 392.667)"/><path d="M11.76 0C11.76 6.49487 6.49487 11.76 4.673e-07 11.76-6.49487 11.76-11.76 6.49487-11.76 4.673e-07-11.76-6.49487-6.49487-11.76 5.06242e-07-11.76 6.49487-11.76 11.76-6.49487 11.76 0Z" fill="#FFFFFF" transform="matrix(1.00348 0 0 1 260.293 360)"/><path d="M11.76 0C11.76 6.49487 6.49487 11.76 4.673e-07 11.76-6.49487 11.76-11.76 6.49487-11.76 4.673e-07-11.76-6.49487-6.49487-11.76 5.06242e-07-11.76 6.49487-11.76 11.76-6.49487 11.76 0Z" fill="#FFFFFF" transform="matrix(1.00348 0 0 1 260.293 392.667)"/><path d="M11.76 0C11.76 6.49487 6.49487 11.76 4.673e-07 11.76-6.49487 11.76-11.76 6.49487-11.76 4.673e-07-11.76-6.49487-6.49487-11.76 5.06242e-07-11.76 6.49487-11.76 11.76-6.49487 11.76 0Z" fill="#FFFFFF" transform="matrix(1.00348 0 0 1 276.683 360)"/><path d="M11.76 0C11.76 6.49487 6.49487 11.76 4.673e-07 11.76-6.49487 11.76-11.76 6.49487-11.76 4.673e-07-11.76-6.49487-6.49487-11.76 5.06242e-07-11.76 6.49487-11.76 11.76-6.49487 11.76 0Z" fill="#FFFFFF" transform="matrix(1.00348 0 0 1 276.683 392.667)"/><path d="M11.76 0C11.76 6.49487 6.49487 11.76 4.673e-07 11.76-6.49487 11.76-11.76 6.49487-11.76 4.673e-07-11.76-6.49487-6.49487-11.76 5.06242e-07-11.76 6.49487-11.76 11.76-6.49487 11.76 0Z" fill="#FFFFFF" transform="matrix(1.00348 0 0 1 293.073 327.333)"/><path d="M11.76 0C11.76 6.49487 6.49487 11.76 4.673e-07 11.76-6.49487 11.76-11.76 6.49487-11.76 4.673e-07-11.76-6.49487-6.49487-11.76 5.06242e-07-11.76 6.49487-11.76 11.76-6.49487 11.76 0Z" fill="#FFFFFF" transform="matrix(1.00348 0 0 1 293.073 343.667)"/><path d="M11.76 0C11.76 6.49487 6.49487 11.76 4.673e-07 11.76-6.49487 11.76-11.76 6.49487-11.76 4.673e-07-11.76-6.49487-6.49487-11.76 5.06242e-07-11.76 6.49487-11.76 11.76-6.49487 11.76 0Z" fill="#FFFFFF" transform="matrix(1.00348 0 0 1 293.073 360)"/><path d="M11.76 0C11.76 6.49487 6.49487 11.76 4.673e-07 11.76-6.49487 11.76-11.76 6.49487-11.76 4.673e-07-11.76-6.49487-6.49487-11.76 5.06242e-07-11.76 6.49487-11.76 11.76-6.49487 11.76 0Z" fill="#FFFFFF" transform="matrix(1.00348 0 0 1 293.073 376.333)"/><path d="M11.76 0C11.76 6.49487 6.49487 11.76 4.673e-07 11.76-6.49487 11.76-11.76 6.49487-11.76 4.673e-07-11.76-6.49487-6.49487-11.76 5.06242e-07-11.76 6.49487-11.76 11.76-6.49487 11.76 0Z" fill="#FFFFFF" transform="matrix(1.00348 0 0 1 325.854 327.333)"/><path d="M11.76 0C11.76 6.49487 6.49487 11.76 4.673e-07 11.76-6.49487 11.76-11.76 6.49487-11.76 4.673e-07-11.76-6.49487-6.49487-11.76 5.06242e-07-11.76 6.49487-11.76 11.76-6.49487 11.76 0Z" fill="#FFFFFF" transform="matrix(1.00348 0 0 1 342.244 294.667)"/><path d="M11.76 0C11.76 6.49487 6.49487 11.76 4.673e-07 11.76-6.49487 11.76-11.76 6.49487-11.76 4.673e-07-11.76-6.49487-6.49487-11.76 5.06242e-07-11.76 6.49487-11.76 11.76-6.49487 11.76 0Z" fill="#FFFFFF" transform="matrix(1.00348 0 0 1 342.244 311)"/><path d="M11.76 0C11.76 6.49487 6.49487 11.76 4.673e-07 11.76-6.49487 11.76-11.76 6.49487-11.76 4.673e-07-11.76-6.49487-6.49487-11.76 5.06242e-07-11.76 6.49487-11.76 11.76-6.49487 11.76 0Z" fill="#FFFFFF" transform="matrix(1.00348 0 0 1 342.244 327.333)"/><path d="M11.76 0C11.76 6.49487 6.49487 11.76 4.673e-07 11.76-6.49487 11.76-11.76 6.49487-11.76 4.673e-07-11.76-6.49487-6.49487-11.76 5.06242e-07-11.76 6.49487-11.76 11.76-6.49487 11.76 0Z" fill="#FFFFFF" transform="matrix(1.00348 0 0 1 342.244 343.667)"/><path d="M11.76 0C11.76 6.49487 6.49487 11.76 4.673e-07 11.76-6.49487 11.76-11.76 6.49487-11.76 4.673e-07-11.76-6.49487-6.49487-11.76 5.06242e-07-11.76 6.49487-11.76 11.76-6.49487 11.76 0Z" fill="#FFFFFF" transform="matrix(1.00348 0 0 1 342.244 360)"/><path d="M11.76 0C11.76 6.49487 6.49487 11.76 4.673e-07 11.76-6.49487 11.76-11.76 6.49487-11.76 4.673e-07-11.76-6.49487-6.49487-11.76 5.06242e-07-11.76 6.49487-11.76 11.76-6.49487 11.76 0Z" fill="#FFFFFF" transform="matrix(1.00348 0 0 1 342.244 376.333)"/><path d="M11.76 0C11.76 6.49487 6.49487 11.76 4.673e-07 11.76-6.49487 11.76-11.76 6.49487-11.76 4.673e-07-11.76-6.49487-6.49487-11.76 5.06242e-07-11.76 6.49487-11.76 11.76-6.49487 11.76 0Z" fill="#FFFFFF" transform="matrix(1.00348 0 0 1 358.634 327.333)"/><path d="M11.76 0C11.76 6.49487 6.49487 11.76 4.673e-07 11.76-6.49487 11.76-11.76 6.49487-11.76 4.673e-07-11.76-6.49487-6.49487-11.76 5.06242e-07-11.76 6.49487-11.76 11.76-6.49487 11.76 0Z" fill="#FFFFFF" transform="matrix(1.00348 0 0 1 358.634 392.667)"/><path d="M11.76 0C11.76 6.49487 6.49487 11.76 4.673e-07 11.76-6.49487 11.76-11.76 6.49487-11.76 4.673e-07-11.76-6.49487-6.49487-11.76 5.06242e-07-11.76 6.49487-11.76 11.76-6.49487 11.76 0Z" fill="#FFFFFF" transform="matrix(1.00348 0 0 1 375.024 392.667)"/><path d="M11.76 0C11.76 6.49487 6.49487 11.76 4.673e-07 11.76-6.49487 11.76-11.76 6.49487-11.76 4.673e-07-11.76-6.49487-6.49487-11.76 5.06242e-07-11.76 6.49487-11.76 11.76-6.49487 11.76 0Z" fill="#FFFFFF" transform="matrix(1.00348 0 0 1 391.415 376.333)"/><path d="M11.76 0C11.76 6.49487 6.49487 11.76 4.673e-07 11.76-6.49487 11.76-11.76 6.49487-11.76 4.673e-07-11.76-6.49487-6.49487-11.76 5.06242e-07-11.76 6.49487-11.76 11.76-6.49487 11.76 0Z" fill="#FFFFFF" transform="matrix(1.00348 0 0 1 424.195 294.667)"/><path d="M11.76 0C11.76 6.49487 6.49487 11.76 4.673e-07 11.76-6.49487 11.76-11.76 6.49487-11.76 4.673e-07-11.76-6.49487-6.49487-11.76 5.06242e-07-11.76 6.49487-11.76 11.76-6.49487 11.76 0Z" fill="#FFFFFF" transform="matrix(1.00348 0 0 1 424.195 311)"/><path d="M11.76 0C11.76 6.49487 6.49487 11.76 4.673e-07 11.76-6.49487 11.76-11.76 6.49487-11.76 4.673e-07-11.76-6.49487-6.49487-11.76 5.06242e-07-11.76 6.49487-11.76 11.76-6.49487 11.76 0Z" fill="#FFFFFF" transform="matrix(1.00348 0 0 1 424.195 327.333)"/><path d="M11.76 0C11.76 6.49487 6.49487 11.76 4.673e-07 11.76-6.49487 11.76-11.76 6.49487-11.76 4.673e-07-11.76-6.49487-6.49487-11.76 5.06242e-07-11.76 6.49487-11.76 11.76-6.49487 11.76 0Z" fill="#FFFFFF" transform="matrix(1.00348 0 0 1 424.195 343.667)"/><path d="M11.76 0C11.76 6.49487 6.49487 11.76 4.673e-07 11.76-6.49487 11.76-11.76 6.49487-11.76 4.673e-07-11.76-6.49487-6.49487-11.76 5.06242e-07-11.76 6.49487-11.76 11.76-6.49487 11.76 0Z" fill="#FFFFFF" transform="matrix(1.00348 0 0 1 424.195 360)"/><path d="M11.76 0C11.76 6.49487 6.49487 11.76 4.673e-07 11.76-6.49487 11.76-11.76 6.49487-11.76 4.673e-07-11.76-6.49487-6.49487-11.76 5.06242e-07-11.76 6.49487-11.76 11.76-6.49487 11.76 0Z" fill="#FFFFFF" transform="matrix(1.00348 0 0 1 424.195 376.333)"/><path d="M11.76 0C11.76 6.49487 6.49487 11.76 4.673e-07 11.76-6.49487 11.76-11.76 6.49487-11.76 4.673e-07-11.76-6.49487-6.49487-11.76 5.06242e-07-11.76 6.49487-11.76 11.76-6.49487 11.76 0Z" fill="#FFFFFF" transform="matrix(1.00348 0 0 1 424.195 392.667)"/><path d="M11.76 0C11.76 6.49487 6.49487 11.76 4.673e-07 11.76-6.49487 11.76-11.76 6.49487-11.76 4.673e-07-11.76-6.49487-6.49487-11.76 5.06242e-07-11.76 6.49487-11.76 11.76-6.49487 11.76 0Z" fill="#FFFFFF" transform="matrix(1.00348 0 0 1 440.585 343.667)"/><path d="M11.76 0C11.76 6.49487 6.49487 11.76 4.673e-07 11.76-6.49487 11.76-11.76 6.49487-11.76 4.673e-07-11.76-6.49487-6.49487-11.76 5.06242e-07-11.76 6.49487-11.76 11.76-6.49487 11.76 0Z" fill="#FFFFFF" transform="matrix(1.00348 0 0 1 456.976 327.333)"/><path d="M11.76 0C11.76 6.49487 6.49487 11.76 4.673e-07 11.76-6.49487 11.76-11.76 6.49487-11.76 4.673e-07-11.76-6.49487-6.49487-11.76 5.06242e-07-11.76 6.49487-11.76 11.76-6.49487 11.76 0Z" fill="#FFFFFF" transform="matrix(1.00348 0 0 1 473.366 327.333)"/><path d="M11.76 0C11.76 6.49487 6.49487 11.76 4.673e-07 11.76-6.49487 11.76-11.76 6.49487-11.76 4.673e-07-11.76-6.49487-6.49487-11.76 5.06242e-07-11.76 6.49487-11.76 11.76-6.49487 11.76 0Z" fill="#FFFFFF" transform="matrix(1.00348 0 0 1 489.756 343.667)"/><path d="M11.76 0C11.76 6.49487 6.49487 11.76 4.673e-07 11.76-6.49487 11.76-11.76 6.49487-11.76 4.673e-07-11.76-6.49487-6.49487-11.76 5.06242e-07-11.76 6.49487-11.76 11.76-6.49487 11.76 0Z" fill="#FFFFFF" transform="matrix(1.00348 0 0 1 489.756 360)"/><path d="M11.76 0C11.76 6.49487 6.49487 11.76 4.673e-07 11.76-6.49487 11.76-11.76 6.49487-11.76 4.673e-07-11.76-6.49487-6.49487-11.76 5.06242e-07-11.76 6.49487-11.76 11.76-6.49487 11.76 0Z" fill="#FFFFFF" transform="matrix(1.00348 0 0 1 489.756 376.333)"/><path d="M11.76 0C11.76 6.49487 6.49487 11.76 4.673e-07 11.76-6.49487 11.76-11.76 6.49487-11.76 4.673e-07-11.76-6.49487-6.49487-11.76 5.06242e-07-11.76 6.49487-11.76 11.76-6.49487 11.76 0Z" fill="#FFFFFF" transform="matrix(1.00348 0 0 1 489.756 392.667)"/><path d="M11.76 0C11.76 6.49487 6.49487 11.76 4.673e-07 11.76-6.49487 11.76-11.76 6.49487-11.76 4.673e-07-11.76-6.49487-6.49487-11.76 5.06242e-07-11.76 6.49487-11.76 11.76-6.49487 11.76 0Z" fill="#FFFFFF" transform="matrix(1.00348 0 0 1 522.537 343.667)"/><path d="M11.76 0C11.76 6.49487 6.49487 11.76 4.673e-07 11.76-6.49487 11.76-11.76 6.49487-11.76 4.673e-07-11.76-6.49487-6.49487-11.76 5.06242e-07-11.76 6.49487-11.76 11.76-6.49487 11.76 0Z" fill="#FFFFFF" transform="matrix(1.00348 0 0 1 522.537 360)"/><path d="M11.76 0C11.76 6.49487 6.49487 11.76 4.673e-07 11.76-6.49487 11.76-11.76 6.49487-11.76 4.673e-07-11.76-6.49487-6.49487-11.76 5.06242e-07-11.76 6.49487-11.76 11.76-6.49487 11.76 0Z" fill="#FFFFFF" transform="matrix(1.00348 0 0 1 522.537 376.333)"/><path d="M11.76 0C11.76 6.49487 6.49487 11.76 4.673e-07 11.76-6.49487 11.76-11.76 6.49487-11.76 4.673e-07-11.76-6.49487-6.49487-11.76 5.06242e-07-11.76 6.49487-11.76 11.76-6.49487 11.76 0Z" fill="#FFFFFF" transform="matrix(1.00348 0 0 1 538.927 327.333)"/><path d="M11.76 0C11.76 6.49487 6.49487 11.76 4.673e-07 11.76-6.49487 11.76-11.76 6.49487-11.76 4.673e-07-11.76-6.49487-6.49487-11.76 5.06242e-07-11.76 6.49487-11.76 11.76-6.49487 11.76 0Z" fill="#FFFFFF" transform="matrix(1.00348 0 0 1 538.927 392.667)"/><path d="M11.76 0C11.76 6.49487 6.49487 11.76 4.673e-07 11.76-6.49487 11.76-11.76 6.49487-11.76 4.673e-07-11.76-6.49487-6.49487-11.76 5.06242e-07-11.76 6.49487-11.76 11.76-6.49487 11.76 0Z" fill="#FFFFFF" transform="matrix(1.00348 0 0 1 555.317 327.333)"/><path d="M11.76 0C11.76 6.49487 6.49487 11.76 4.673e-07 11.76-6.49487 11.76-11.76 6.49487-11.76 4.673e-07-11.76-6.49487-6.49487-11.76 5.06242e-07-11.76 6.49487-11.76 11.76-6.49487 11.76 0Z" fill="#FFFFFF" transform="matrix(1.00348 0 0 1 555.317 392.667)"/><path d="M11.76 0C11.76 6.49487 6.49487 11.76 4.673e-07 11.76-6.49487 11.76-11.76 6.49487-11.76 4.673e-07-11.76-6.49487-6.49487-11.76 5.06242e-07-11.76 6.49487-11.76 11.76-6.49487 11.76 0Z" fill="#FFFFFF" transform="matrix(1.00348 0 0 1 571.707 327.333)"/><path d="M11.76 0C11.76 6.49487 6.49487 11.76 4.673e-07 11.76-6.49487 11.76-11.76 6.49487-11.76 4.673e-07-11.76-6.49487-6.49487-11.76 5.06242e-07-11.76 6.49487-11.76 11.76-6.49487 11.76 0Z" fill="#FFFFFF" transform="matrix(1.00348 0 0 1 571.707 392.667)"/><path d="M11.76 0C11.76 6.49487 6.49487 11.76 4.673e-07 11.76-6.49487 11.76-11.76 6.49487-11.76 4.673e-07-11.76-6.49487-6.49487-11.76 5.06242e-07-11.76 6.49487-11.76 11.76-6.49487 11.76 0Z" fill="#FFFFFF" transform="matrix(1.00348 0 0 1 588.098 343.667)"/><path d="M11.76 0C11.76 6.49487 6.49487 11.76 4.673e-07 11.76-6.49487 11.76-11.76 6.49487-11.76 4.673e-07-11.76-6.49487-6.49487-11.76 5.06242e-07-11.76 6.49487-11.76 11.76-6.49487 11.76 0Z" fill="#FFFFFF" transform="matrix(1.00348 0 0 1 588.098 360)"/><path d="M11.76 0C11.76 6.49487 6.49487 11.76 4.673e-07 11.76-6.49487 11.76-11.76 6.49487-11.76 4.673e-07-11.76-6.49487-6.49487-11.76 5.06242e-07-11.76 6.49487-11.76 11.76-6.49487 11.76 0Z" fill="#FFFFFF" transform="matrix(1.00348 0 0 1 588.098 376.333)"/><path d="M11.76 0C11.76 6.49487 6.49487 11.76 4.673e-07 11.76-6.49487 11.76-11.76 6.49487-11.76 4.673e-07-11.76-6.49487-6.49487-11.76 5.06242e-07-11.76 6.49487-11.76 11.76-6.49487 11.76 0Z" fill="#FFFFFF" transform="matrix(1.00348 0 0 1 620.878 327.333)"/><path d="M11.76 0C11.76 6.49487 6.49487 11.76 4.673e-07 11.76-6.49487 11.76-11.76 6.49487-11.76 4.673e-07-11.76-6.49487-6.49487-11.76 5.06242e-07-11.76 6.49487-11.76 11.76-6.49487 11.76 0Z" fill="#FFFFFF" transform="matrix(1.00348 0 0 1 620.878 343.667)"/><path d="M11.76 0C11.76 6.49487 6.49487 11.76 4.673e-07 11.76-6.49487 11.76-11.76 6.49487-11.76 4.673e-07-11.76-6.49487-6.49487-11.76 5.06242e-07-11.76 6.49487-11.76 11.76-6.49487 11.76 0Z" fill="#FFFFFF" transform="matrix(1.00348 0 0 1 620.878 360)"/><path d="M11.76 0C11.76 6.49487 6.49487 11.76 4.673e-07 11.76-6.49487 11.76-11.76 6.49487-11.76 4.673e-07-11.76-6.49487-6.49487-11.76 5.06242e-07-11.76 6.49487-11.76 11.76-6.49487 11.76 0Z" fill="#FFFFFF" transform="matrix(1.00348 0 0 1 620.878 376.333)"/><path d="M11.76 0C11.76 6.49487 6.49487 11.76 4.673e-07 11.76-6.49487 11.76-11.76 6.49487-11.76 4.673e-07-11.76-6.49487-6.49487-11.76 5.06242e-07-11.76 6.49487-11.76 11.76-6.49487 11.76 0Z" fill="#FFFFFF" transform="matrix(1.00348 0 0 1 620.878 392.667)"/><path d="M11.76 0C11.76 6.49487 6.49487 11.76 4.673e-07 11.76-6.49487 11.76-11.76 6.49487-11.76 4.673e-07-11.76-6.49487-6.49487-11.76 5.06242e-07-11.76 6.49487-11.76 11.76-6.49487 11.76 0Z" fill="#FFFFFF" transform="matrix(1.00348 0 0 1 637.268 343.667)"/><path d="M11.76 0C11.76 6.49487 6.49487 11.76 4.673e-07 11.76-6.49487 11.76-11.76 6.49487-11.76 4.673e-07-11.76-6.49487-6.49487-11.76 5.06242e-07-11.76 6.49487-11.76 11.76-6.49487 11.76 0Z" fill="#FFFFFF" transform="matrix(1.00348 0 0 1 653.659 327.333)"/><path d="M11.76 0C11.76 6.49487 6.49487 11.76 4.673e-07 11.76-6.49487 11.76-11.76 6.49487-11.76 4.673e-07-11.76-6.49487-6.49487-11.76 5.06242e-07-11.76 6.49487-11.76 11.76-6.49487 11.76 0Z" fill="#FFFFFF" transform="matrix(1.00348 0 0 1 670.049 327.333)"/><path d="M11.76 0C11.76 6.49487 6.49487 11.76 4.673e-07 11.76-6.49487 11.76-11.76 6.49487-11.76 4.673e-07-11.76-6.49487-6.49487-11.76 5.06242e-07-11.76 6.49487-11.76 11.76-6.49487 11.76 0Z" fill="#FFFFFF" transform="matrix(1.00348 0 0 1 686.439 343.667)"/><path d="M11.76 0C11.76 6.49487 6.49487 11.76 4.673e-07 11.76-6.49487 11.76-11.76 6.49487-11.76 4.673e-07-11.76-6.49487-6.49487-11.76 5.06242e-07-11.76 6.49487-11.76 11.76-6.49487 11.76 0Z" fill="#FFFFFF" transform="matrix(1.00348 0 0 1 686.439 360)"/><path d="M11.76 0C11.76 6.49487 6.49487 11.76 4.673e-07 11.76-6.49487 11.76-11.76 6.49487-11.76 4.673e-07-11.76-6.49487-6.49487-11.76 5.06242e-07-11.76 6.49487-11.76 11.76-6.49487 11.76 0Z" fill="#FFFFFF" transform="matrix(1.00348 0 0 1 686.439 376.333)"/><path d="M11.76 0C11.76 6.49487 6.49487 11.76 4.673e-07 11.76-6.49487 11.76-11.76 6.49487-11.76 4.673e-07-11.76-6.49487-6.49487-11.76 5.06242e-07-11.76 6.49487-11.76 11.76-6.49487 11.76 0Z" fill="#FFFFFF" transform="matrix(1.00348 0 0 1 686.439 392.667)"/></g></svg>